{
	"patcher" : 	{
		"fileversion" : 1,
		"appversion" : 		{
			"major" : 6,
			"minor" : 0,
			"revision" : 8
		}
,
		"rect" : [ 479.0, 201.0, 537.0, 461.0 ],
		"bglocked" : 0,
		"openinpresentation" : 1,
		"default_fontsize" : 12.0,
		"default_fontface" : 0,
		"default_fontname" : "Arial",
		"gridonopen" : 0,
		"gridsize" : [ 10.0, 10.0 ],
		"gridsnaponopen" : 0,
		"statusbarvisible" : 2,
		"toolbarvisible" : 1,
		"boxanimatetime" : 200,
		"imprint" : 0,
		"enablehscroll" : 1,
		"enablevscroll" : 1,
		"devicewidth" : 0.0,
		"description" : "",
		"digest" : "",
		"tags" : "",
		"boxes" : [ 			{
				"box" : 				{
					"fontname" : "Arial",
					"fontsize" : 12.0,
					"id" : "obj-58",
					"maxclass" : "message",
					"numinlets" : 2,
					"numoutlets" : 1,
					"outlettype" : [ "" ],
					"patching_rect" : [ 600.0, 285.0, 303.0, 18.0 ],
					"presentation" : 1,
					"presentation_rect" : [ 20.0, 440.0, 310.0, 18.0 ],
					"text" : "http://redmine.jamoma.org/projects/sonification-toolbox"
				}

			}
, 			{
				"box" : 				{
					"fontname" : "Verdana",
					"fontsize" : 10.0,
					"hidden" : 1,
					"id" : "obj-56",
					"linecount" : 2,
					"maxclass" : "message",
					"numinlets" : 2,
					"numoutlets" : 1,
					"outlettype" : [ "" ],
					"patching_rect" : [ 590.0, 371.0, 125.0, 29.0 ],
					"text" : ";\rmax launchbrowser $1"
				}

			}
, 			{
				"box" : 				{
					"fontname" : "Arial",
					"fontsize" : 12.0,
					"id" : "obj-24",
					"maxclass" : "message",
					"numinlets" : 2,
					"numoutlets" : 1,
					"outlettype" : [ "" ],
					"patching_rect" : [ 270.0, 315.5, 134.0, 18.0 ],
					"presentation" : 1,
					"presentation_rect" : [ 256.0, 192.5, 134.0, 18.0 ],
					"text" : "jmod.son.waveshaper~"
				}

			}
, 			{
				"box" : 				{
					"fontname" : "Arial",
					"fontsize" : 12.0,
					"id" : "obj-23",
					"maxclass" : "message",
					"numinlets" : 2,
					"numoutlets" : 1,
					"outlettype" : [ "" ],
					"patching_rect" : [ 270.0, 293.5, 128.0, 18.0 ],
					"presentation" : 1,
					"presentation_rect" : [ 255.0, 169.5, 128.0, 18.0 ],
					"text" : "jmod.son.subtractive~"
				}

			}
, 			{
				"box" : 				{
					"fontname" : "Arial",
					"fontsize" : 12.0,
					"id" : "obj-22",
					"maxclass" : "message",
					"numinlets" : 2,
					"numoutlets" : 1,
					"outlettype" : [ "" ],
					"patching_rect" : [ 270.0, 271.5, 120.0, 18.0 ],
					"presentation" : 1,
					"presentation_rect" : [ 395.0, 169.5, 120.0, 18.0 ],
					"text" : "jmod.son.resonator~"
				}

			}
, 			{
				"box" : 				{
					"fontname" : "Arial",
					"fontsize" : 12.0,
					"id" : "obj-21",
					"maxclass" : "message",
					"numinlets" : 2,
					"numoutlets" : 1,
					"outlettype" : [ "" ],
					"patching_rect" : [ 270.0, 249.5, 102.0, 18.0 ],
					"presentation" : 1,
					"presentation_rect" : [ 256.0, 215.5, 102.0, 18.0 ],
					"text" : "jmod.son.pulsar~"
				}

			}
, 			{
				"box" : 				{
					"fontname" : "Arial",
					"fontsize" : 12.0,
					"id" : "obj-20",
					"maxclass" : "message",
					"numinlets" : 2,
					"numoutlets" : 1,
					"outlettype" : [ "" ],
					"patching_rect" : [ 270.0, 227.5, 117.0, 18.0 ],
					"presentation" : 1,
					"presentation_rect" : [ 255.0, 123.5, 117.0, 18.0 ],
					"text" : "jmod.son.oscillator~"
				}

			}
, 			{
				"box" : 				{
					"fontname" : "Arial",
					"fontsize" : 12.0,
					"id" : "obj-19",
					"maxclass" : "message",
					"numinlets" : 2,
					"numoutlets" : 1,
					"outlettype" : [ "" ],
					"patching_rect" : [ 270.0, 205.5, 108.0, 18.0 ],
					"presentation" : 1,
					"presentation_rect" : [ 395.0, 146.5, 108.0, 18.0 ],
					"text" : "jmod.son.karplus~"
				}

			}
, 			{
				"box" : 				{
					"fontname" : "Arial",
					"fontsize" : 12.0,
					"id" : "obj-18",
					"maxclass" : "message",
					"numinlets" : 2,
					"numoutlets" : 1,
					"outlettype" : [ "" ],
					"patching_rect" : [ 270.0, 183.5, 111.0, 18.0 ],
					"presentation" : 1,
					"presentation_rect" : [ 255.0, 146.5, 111.0, 18.0 ],
					"text" : "jmod.son.impulse~"
				}

			}
, 			{
				"box" : 				{
					"fontname" : "Arial",
					"fontsize" : 12.0,
					"id" : "obj-17",
					"maxclass" : "message",
					"numinlets" : 2,
					"numoutlets" : 1,
					"outlettype" : [ "" ],
					"patching_rect" : [ 270.0, 161.5, 114.0, 18.0 ],
					"presentation" : 1,
					"presentation_rect" : [ 256.0, 238.5, 114.0, 18.0 ],
					"text" : "jmod.son.granular~"
				}

			}
, 			{
				"box" : 				{
					"fontname" : "Arial",
					"fontsize" : 12.0,
					"id" : "obj-16",
					"maxclass" : "message",
					"numinlets" : 2,
					"numoutlets" : 1,
					"outlettype" : [ "" ],
					"patching_rect" : [ 270.0, 140.0, 83.0, 18.0 ],
					"presentation" : 1,
					"presentation_rect" : [ 395.0, 123.5, 83.0, 18.0 ],
					"text" : "jmod.son.fof~"
				}

			}
, 			{
				"box" : 				{
					"bgcolor" : [ 0.094118, 0.113725, 0.137255, 0.0 ],
					"border" : 1,
					"bordercolor" : [ 0.415686, 0.454902, 0.52549, 1.0 ],
					"grad2" : [ 0.415686, 0.454902, 0.52549, 1.0 ],
					"id" : "obj-39",
					"maxclass" : "panel",
					"numinlets" : 1,
					"numoutlets" : 0,
					"patching_rect" : [ 356.0, 335.0, 50.0, 30.0 ],
					"presentation" : 1,
					"presentation_rect" : [ 250.0, 110.5, 275.0, 157.0 ],
					"rounded" : 16
				}

			}
, 			{
				"box" : 				{
					"args" : [ "@name", "jmod.moduleName", "@description" ],
					"bgmode" : 1,
					"id" : "obj-38",
					"maxclass" : "bpatcher",
					"name" : "jcom.maxhelpui.maxpat",
					"numinlets" : 1,
					"numoutlets" : 0,
					"patching_rect" : [ 0.0, 0.0, 537.0, 70.0 ],
					"presentation" : 1,
					"presentation_rect" : [ -1.0, -1.0, 541.0, 70.0 ]
				}

			}
, 			{
				"box" : 				{
					"fontname" : "Arial",
					"fontsize" : 12.0,
					"id" : "obj-12",
					"maxclass" : "message",
					"numinlets" : 2,
					"numoutlets" : 1,
					"outlettype" : [ "" ],
					"patching_rect" : [ 20.0, 258.5, 95.0, 18.0 ],
					"presentation" : 1,
					"presentation_rect" : [ 30.0, 310.0, 95.0, 18.0 ],
					"text" : "jmod.son.model"
				}

			}
, 			{
				"box" : 				{
					"fontname" : "Arial",
					"fontsize" : 12.0,
					"id" : "obj-11",
					"maxclass" : "message",
					"numinlets" : 2,
					"numoutlets" : 1,
					"outlettype" : [ "" ],
					"patching_rect" : [ 20.0, 236.5, 103.0, 18.0 ],
					"presentation" : 1,
					"presentation_rect" : [ 30.0, 286.0, 103.0, 18.0 ],
					"text" : "jmod.son.mgraph"
				}

			}
, 			{
				"box" : 				{
					"fontname" : "Arial",
					"fontsize" : 12.0,
					"id" : "obj-10",
					"maxclass" : "message",
					"numinlets" : 2,
					"numoutlets" : 1,
					"outlettype" : [ "" ],
					"patching_rect" : [ 20.0, 214.5, 109.0, 18.0 ],
					"presentation" : 1,
					"presentation_rect" : [ 30.0, 262.0, 109.0, 18.0 ],
					"text" : "jmod.son.knearest"
				}

			}
, 			{
				"box" : 				{
					"fontname" : "Arial",
					"fontsize" : 12.0,
					"id" : "obj-9",
					"maxclass" : "message",
					"numinlets" : 2,
					"numoutlets" : 1,
					"outlettype" : [ "" ],
					"patching_rect" : [ 20.0, 192.5, 93.0, 18.0 ],
					"presentation" : 1,
					"presentation_rect" : [ 30.0, 238.0, 93.0, 18.0 ],
					"text" : "jmod.son.graph"
				}

			}
, 			{
				"box" : 				{
					"fontname" : "Arial",
					"fontsize" : 12.0,
					"id" : "obj-8",
					"maxclass" : "message",
					"numinlets" : 2,
					"numoutlets" : 1,
					"outlettype" : [ "" ],
					"patching_rect" : [ 20.0, 170.0, 93.0, 18.0 ],
					"presentation" : 1,
					"presentation_rect" : [ 30.0, 213.375, 93.0, 18.0 ],
					"text" : "jmod.son.brush"
				}

			}
, 			{
				"box" : 				{
					"bgcolor" : [ 0.094118, 0.113725, 0.137255, 0.0 ],
					"border" : 1,
					"bordercolor" : [ 0.415686, 0.454902, 0.52549, 1.0 ],
					"grad2" : [ 0.415686, 0.454902, 0.52549, 1.0 ],
					"id" : "obj-37",
					"maxclass" : "panel",
					"numinlets" : 1,
					"numoutlets" : 0,
					"patching_rect" : [ 263.0, 53.0, 50.0, 30.0 ],
					"presentation" : 1,
					"presentation_rect" : [ 20.0, 209.375, 150.0, 125.875 ],
					"rounded" : 16
				}

			}
, 			{
				"box" : 				{
					"fontname" : "Arial",
					"fontsize" : 12.0,
					"frgb" : 0.0,
					"id" : "obj-36",
					"maxclass" : "comment",
					"numinlets" : 1,
					"numoutlets" : 0,
					"patching_rect" : [ 320.0, 190.0, 150.0, 20.0 ],
					"presentation" : 1,
					"presentation_linecount" : 2,
					"presentation_rect" : [ 174.5, 400.25, 65.5, 33.0 ],
					"text" : "< still In progress!"
				}

			}
, 			{
				"box" : 				{
					"fontname" : "Arial",
					"fontsize" : 12.0,
					"id" : "obj-34",
					"maxclass" : "message",
					"numinlets" : 2,
					"numoutlets" : 1,
					"outlettype" : [ "" ],
					"patching_rect" : [ 270.0, 68.0, 150.0, 18.0 ],
					"presentation" : 1,
					"presentation_rect" : [ 30.0, 402.0, 113.0, 18.0 ],
					"text" : "jmod.son.linkmodel"
				}

			}
, 			{
				"box" : 				{
					"fontname" : "Arial",
					"fontsize" : 12.0,
					"id" : "obj-29",
					"maxclass" : "message",
					"numinlets" : 2,
					"numoutlets" : 1,
					"outlettype" : [ "" ],
					"patching_rect" : [ 510.0, 203.666672, 88.0, 18.0 ],
					"presentation" : 1,
					"presentation_rect" : [ 260.0, 396.166687, 88.0, 18.0 ],
					"text" : "jmod.son.stats"
				}

			}
, 			{
				"box" : 				{
					"fontname" : "Arial",
					"fontsize" : 12.0,
					"id" : "obj-28",
					"maxclass" : "message",
					"numinlets" : 2,
					"numoutlets" : 1,
					"outlettype" : [ "" ],
					"patching_rect" : [ 510.0, 182.666672, 95.0, 18.0 ],
					"presentation" : 1,
					"presentation_rect" : [ 260.0, 371.166687, 95.0, 18.0 ],
					"text" : "jmod.son.getcol"
				}

			}
, 			{
				"box" : 				{
					"fontname" : "Arial",
					"fontsize" : 12.0,
					"id" : "obj-27",
					"maxclass" : "message",
					"numinlets" : 2,
					"numoutlets" : 1,
					"outlettype" : [ "" ],
					"patching_rect" : [ 510.0, 161.666672, 98.0, 18.0 ],
					"presentation" : 1,
					"presentation_rect" : [ 260.0, 346.166687, 98.0, 18.0 ],
					"text" : "jmod.son.except"
				}

			}
, 			{
				"box" : 				{
					"fontname" : "Arial",
					"fontsize" : 12.0,
					"id" : "obj-26",
					"maxclass" : "message",
					"numinlets" : 2,
					"numoutlets" : 1,
					"outlettype" : [ "" ],
					"patching_rect" : [ 510.0, 140.0, 109.0, 18.0 ],
					"presentation" : 1,
					"presentation_rect" : [ 260.0, 322.0, 109.0, 18.0 ],
					"text" : "jmod.son.datetime"
				}

			}
, 			{
				"box" : 				{
					"fontname" : "Verdana",
					"fontsize" : 16.0,
					"frgb" : 0.0,
					"id" : "obj-25",
					"maxclass" : "comment",
					"numinlets" : 1,
					"numoutlets" : 0,
					"patching_rect" : [ 500.0, 100.0, 199.0, 26.0 ],
					"presentation" : 1,
					"presentation_rect" : [ 250.0, 284.0, 199.0, 26.0 ],
					"text" : "Utilities\n"
				}

			}
, 			{
				"box" : 				{
					"fontname" : "Verdana",
					"fontsize" : 16.0,
					"frgb" : 0.0,
					"id" : "obj-15",
					"maxclass" : "comment",
					"numinlets" : 1,
					"numoutlets" : 0,
					"patching_rect" : [ 270.0, 100.0, 197.0, 26.0 ],
					"presentation" : 1,
					"presentation_rect" : [ 250.0, 82.0, 197.0, 26.0 ],
					"text" : "Sound Synthesis"
				}

			}
, 			{
				"box" : 				{
					"fontname" : "Arial",
					"fontsize" : 12.0,
					"id" : "obj-13",
					"maxclass" : "message",
					"numinlets" : 2,
					"numoutlets" : 1,
					"outlettype" : [ "" ],
					"patching_rect" : [ 270.0, 50.0, 103.0, 18.0 ],
					"presentation" : 1,
					"presentation_rect" : [ 30.0, 377.0, 103.0, 18.0 ],
					"text" : "jmod.son.mapper"
				}

			}
, 			{
				"box" : 				{
					"fontname" : "Verdana",
					"fontsize" : 16.0,
					"frgb" : 0.0,
					"id" : "obj-1",
					"maxclass" : "comment",
					"numinlets" : 1,
					"numoutlets" : 0,
					"patching_rect" : [ 270.0, 10.0, 200.0, 26.0 ],
					"presentation" : 1,
					"presentation_rect" : [ 20.0, 340.0, 200.0, 26.0 ],
					"text" : "Mapping"
				}

			}
, 			{
				"box" : 				{
					"fontname" : "Verdana",
					"fontsize" : 16.0,
					"frgb" : 0.0,
					"id" : "obj-7",
					"maxclass" : "comment",
					"numinlets" : 1,
					"numoutlets" : 0,
					"patching_rect" : [ 20.0, 130.0, 198.0, 26.0 ],
					"presentation" : 1,
					"presentation_rect" : [ 20.0, 183.375, 198.0, 26.0 ],
					"text" : "Interaction"
				}

			}
, 			{
				"box" : 				{
					"fontname" : "Arial",
					"fontsize" : 12.0,
					"id" : "obj-6",
					"maxclass" : "message",
					"numinlets" : 2,
					"numoutlets" : 1,
					"outlettype" : [ "" ],
					"patching_rect" : [ 20.0, 90.0, 76.0, 18.0 ],
					"presentation" : 1,
					"presentation_rect" : [ 30.0, 117.0, 76.0, 18.0 ],
					"text" : "jmod.son.url"
				}

			}
, 			{
				"box" : 				{
					"fontname" : "Verdana",
					"fontsize" : 16.0,
					"frgb" : 0.0,
					"id" : "obj-81",
					"linecount" : 2,
					"maxclass" : "comment",
					"numinlets" : 1,
					"numoutlets" : 0,
					"patching_rect" : [ 20.0, 10.0, 197.0, 45.0 ],
					"presentation" : 1,
					"presentation_rect" : [ 20.0, 80.0, 210.0, 26.0 ],
					"text" : "Acquisition and Storage"
				}

			}
, 			{
				"box" : 				{
					"fontname" : "Arial",
					"fontsize" : 12.0,
					"id" : "obj-5",
					"maxclass" : "newobj",
					"numinlets" : 1,
					"numoutlets" : 1,
					"outlettype" : [ "" ],
					"patching_rect" : [ 420.0, 520.0, 53.0, 20.0 ],
					"text" : "pcontrol"
				}

			}
, 			{
				"box" : 				{
					"fontname" : "Arial",
					"fontsize" : 12.0,
					"id" : "obj-4",
					"maxclass" : "newobj",
					"numinlets" : 1,
					"numoutlets" : 1,
					"outlettype" : [ "" ],
					"patching_rect" : [ 420.0, 490.0, 81.0, 20.0 ],
					"text" : "prepend help"
				}

			}
, 			{
				"box" : 				{
					"fontname" : "Arial",
					"fontsize" : 12.0,
					"id" : "obj-3",
					"maxclass" : "message",
					"numinlets" : 2,
					"numoutlets" : 1,
					"outlettype" : [ "" ],
					"patching_rect" : [ 20.0, 60.0, 89.0, 18.0 ],
					"presentation" : 1,
					"presentation_rect" : [ 30.0, 142.0, 89.0, 18.0 ],
					"text" : "jmod.son.table"
				}

			}
, 			{
				"box" : 				{
					"bgcolor" : [ 0.094118, 0.113725, 0.137255, 0.0 ],
					"border" : 1,
					"bordercolor" : [ 0.415686, 0.454902, 0.52549, 1.0 ],
					"grad2" : [ 0.415686, 0.454902, 0.52549, 1.0 ],
					"id" : "obj-74",
					"maxclass" : "panel",
					"numinlets" : 1,
					"numoutlets" : 0,
					"patching_rect" : [ 30.0, 350.0, 50.0, 30.0 ],
					"presentation" : 1,
					"presentation_rect" : [ 20.0, 108.5, 150.0, 57.5 ],
					"rounded" : 16
				}

			}
, 			{
				"box" : 				{
					"bgcolor" : [ 0.094118, 0.113725, 0.137255, 0.0 ],
					"border" : 1,
					"bordercolor" : [ 0.415686, 0.454902, 0.52549, 1.0 ],
					"grad2" : [ 0.415686, 0.454902, 0.52549, 1.0 ],
					"id" : "obj-32",
					"maxclass" : "panel",
					"numinlets" : 1,
					"numoutlets" : 0,
					"patching_rect" : [ 13.0, 162.0, 50.0, 30.0 ],
					"presentation" : 1,
					"presentation_rect" : [ 20.0, 368.5, 150.0, 57.5 ],
					"rounded" : 16
				}

			}
, 			{
				"box" : 				{
					"bgcolor" : [ 0.094118, 0.113725, 0.137255, 0.0 ],
					"border" : 1,
					"bordercolor" : [ 0.415686, 0.454902, 0.52549, 1.0 ],
					"grad2" : [ 0.415686, 0.454902, 0.52549, 1.0 ],
					"id" : "obj-43",
					"maxclass" : "panel",
					"numinlets" : 1,
					"numoutlets" : 0,
					"patching_rect" : [ 264.0, 213.125, 50.0, 30.0 ],
					"presentation" : 1,
					"presentation_rect" : [ 250.0, 310.0, 150.0, 112.875 ],
					"rounded" : 16
				}

			}
 ],
		"lines" : [ 			{
				"patchline" : 				{
					"destination" : [ "obj-4", 0 ],
					"disabled" : 0,
					"hidden" : 0,
					"source" : [ "obj-10", 0 ]
				}

			}
, 			{
				"patchline" : 				{
					"destination" : [ "obj-4", 0 ],
					"disabled" : 0,
					"hidden" : 0,
					"source" : [ "obj-11", 0 ]
				}

			}
, 			{
				"patchline" : 				{
					"destination" : [ "obj-4", 0 ],
					"disabled" : 0,
					"hidden" : 0,
					"source" : [ "obj-12", 0 ]
				}

			}
, 			{
				"patchline" : 				{
					"destination" : [ "obj-4", 0 ],
					"disabled" : 0,
					"hidden" : 0,
					"source" : [ "obj-13", 0 ]
				}

			}
, 			{
				"patchline" : 				{
					"destination" : [ "obj-4", 0 ],
					"disabled" : 0,
					"hidden" : 0,
					"source" : [ "obj-16", 0 ]
				}

			}
, 			{
				"patchline" : 				{
					"destination" : [ "obj-4", 0 ],
					"disabled" : 0,
					"hidden" : 0,
					"source" : [ "obj-17", 0 ]
				}

			}
, 			{
				"patchline" : 				{
					"destination" : [ "obj-4", 0 ],
					"disabled" : 0,
					"hidden" : 0,
					"source" : [ "obj-18", 0 ]
				}

			}
, 			{
				"patchline" : 				{
					"destination" : [ "obj-4", 0 ],
					"disabled" : 0,
					"hidden" : 0,
					"source" : [ "obj-19", 0 ]
				}

			}
, 			{
				"patchline" : 				{
					"destination" : [ "obj-4", 0 ],
					"disabled" : 0,
					"hidden" : 0,
					"source" : [ "obj-20", 0 ]
				}

			}
, 			{
				"patchline" : 				{
					"destination" : [ "obj-4", 0 ],
					"disabled" : 0,
					"hidden" : 0,
					"source" : [ "obj-21", 0 ]
				}

			}
, 			{
				"patchline" : 				{
					"destination" : [ "obj-4", 0 ],
					"disabled" : 0,
					"hidden" : 0,
					"source" : [ "obj-22", 0 ]
				}

			}
, 			{
				"patchline" : 				{
					"destination" : [ "obj-4", 0 ],
					"disabled" : 0,
					"hidden" : 0,
					"source" : [ "obj-23", 0 ]
				}

			}
, 			{
				"patchline" : 				{
					"destination" : [ "obj-4", 0 ],
					"disabled" : 0,
					"hidden" : 0,
					"source" : [ "obj-24", 0 ]
				}

			}
, 			{
				"patchline" : 				{
					"destination" : [ "obj-4", 0 ],
					"disabled" : 0,
					"hidden" : 0,
					"source" : [ "obj-26", 0 ]
				}

			}
, 			{
				"patchline" : 				{
					"destination" : [ "obj-4", 0 ],
					"disabled" : 0,
					"hidden" : 0,
					"source" : [ "obj-27", 0 ]
				}

			}
, 			{
				"patchline" : 				{
					"destination" : [ "obj-4", 0 ],
					"disabled" : 0,
					"hidden" : 0,
					"source" : [ "obj-28", 0 ]
				}

			}
, 			{
				"patchline" : 				{
					"destination" : [ "obj-4", 0 ],
					"disabled" : 0,
					"hidden" : 0,
					"source" : [ "obj-29", 0 ]
				}

			}
, 			{
				"patchline" : 				{
					"destination" : [ "obj-4", 0 ],
					"disabled" : 0,
					"hidden" : 0,
					"source" : [ "obj-3", 0 ]
				}

			}
, 			{
				"patchline" : 				{
					"destination" : [ "obj-4", 0 ],
					"disabled" : 0,
					"hidden" : 0,
					"source" : [ "obj-34", 0 ]
				}

			}
, 			{
				"patchline" : 				{
					"destination" : [ "obj-5", 0 ],
					"disabled" : 0,
					"hidden" : 0,
					"source" : [ "obj-4", 0 ]
				}

			}
, 			{
				"patchline" : 				{
					"destination" : [ "obj-56", 0 ],
					"disabled" : 0,
					"hidden" : 0,
					"source" : [ "obj-58", 0 ]
				}

			}
, 			{
				"patchline" : 				{
					"destination" : [ "obj-4", 0 ],
					"disabled" : 0,
					"hidden" : 0,
					"source" : [ "obj-6", 0 ]
				}

			}
, 			{
				"patchline" : 				{
					"destination" : [ "obj-4", 0 ],
					"disabled" : 0,
					"hidden" : 0,
					"source" : [ "obj-8", 0 ]
				}

			}
, 			{
				"patchline" : 				{
					"destination" : [ "obj-4", 0 ],
					"disabled" : 0,
					"hidden" : 0,
					"source" : [ "obj-9", 0 ]
				}

			}
 ],
		"dependency_cache" : [ 			{
				"name" : "jcom.maxhelpui.maxpat",
				"bootpath" : "/Applications/Max6/Cycling '74/Jamoma/library/components/maxhelpui",
				"patcherrelativepath" : "../../../../../../Applications/Max6/Cycling '74/Jamoma/library/components/maxhelpui",
				"type" : "JSON",
				"implicit" : 1
			}
, 			{
				"name" : "jcom.maxhelpuiButton.png",
				"bootpath" : "/Applications/Max6/Cycling '74/Jamoma/library/components/maxhelpui",
				"patcherrelativepath" : "../../../../../../Applications/Max6/Cycling '74/Jamoma/library/components/maxhelpui",
				"type" : "PNG ",
				"implicit" : 1
			}
, 			{
				"name" : "jcom.maxhelpuiResize.js",
				"bootpath" : "/Applications/Max6/Cycling '74/Jamoma/library/components/maxhelpui",
				"patcherrelativepath" : "../../../../../../Applications/Max6/Cycling '74/Jamoma/library/components/maxhelpui",
				"type" : "TEXT",
				"implicit" : 1
			}
, 			{
				"name" : "jcom.jamomaPath.maxpat",
				"bootpath" : "/Applications/Max6/Cycling '74/Jamoma/library/components/jamomaPath",
				"patcherrelativepath" : "../../../../../../Applications/Max6/Cycling '74/Jamoma/library/components/jamomaPath",
				"type" : "JSON",
				"implicit" : 1
			}
, 			{
				"name" : "jcom.thru.maxpat",
				"bootpath" : "/Applications/Max6/Cycling '74/Jamoma/library/components/thru",
				"patcherrelativepath" : "../../../../../../Applications/Max6/Cycling '74/Jamoma/library/components/thru",
				"type" : "JSON",
				"implicit" : 1
			}
, 			{
				"name" : "jcom.route.mxo",
				"type" : "iLaX"
			}
, 			{
				"name" : "jcom.loader.mxo",
				"type" : "iLaX"
			}
, 			{
				"name" : "jcom.loader.mxo",
				"type" : "iLaX"
			}
 ]
	}

}
