{
	"patcher" : 	{
		"fileversion" : 1,
		"appversion" : 		{
			"major" : 6,
			"minor" : 0,
			"revision" : 5
		}
,
		"rect" : [ 90.0, 44.0, 652.0, 482.0 ],
		"bglocked" : 0,
		"openinpresentation" : 0,
		"default_fontsize" : 12.0,
		"default_fontface" : 0,
		"default_fontname" : "Arial",
		"gridonopen" : 0,
		"gridsize" : [ 5.0, 5.0 ],
		"gridsnaponopen" : 0,
		"statusbarvisible" : 2,
		"toolbarvisible" : 1,
		"boxanimatetime" : 200,
		"imprint" : 0,
		"enablehscroll" : 1,
		"enablevscroll" : 1,
		"devicewidth" : 0.0,
		"description" : "",
		"digest" : "",
		"tags" : "",
		"boxes" : [ 			{
				"box" : 				{
					"id" : "obj-6",
					"maxclass" : "button",
					"numinlets" : 1,
					"numoutlets" : 1,
					"outlettype" : [ "bang" ],
					"patching_rect" : [ 608.0, 125.0, 20.0, 20.0 ]
				}

			}
, 			{
				"box" : 				{
					"fontname" : "Arial",
					"fontsize" : 12.0,
					"id" : "obj-4",
					"maxclass" : "newobj",
					"numinlets" : 1,
					"numoutlets" : 3,
					"outlettype" : [ "", "", "" ],
					"patching_rect" : [ 113.0, 93.0, 418.0, 20.0 ],
					"text" : "jcom.oscroute /dump /refresh"
				}

			}
, 			{
				"box" : 				{
					"comment" : "module names",
					"id" : "obj-1",
					"maxclass" : "outlet",
					"numinlets" : 1,
					"numoutlets" : 0,
					"patching_rect" : [ 656.0, 398.166626, 25.0, 25.0 ]
				}

			}
, 			{
				"box" : 				{
					"fontname" : "Arial",
					"fontsize" : 12.0,
					"id" : "obj-24",
					"maxclass" : "newobj",
					"numinlets" : 2,
					"numoutlets" : 2,
					"outlettype" : [ "", "clear" ],
					"patcher" : 					{
						"fileversion" : 1,
						"appversion" : 						{
							"major" : 6,
							"minor" : 0,
							"revision" : 5
						}
,
						"rect" : [ 0.0, 309.0, 960.0, 603.0 ],
						"bglocked" : 0,
						"openinpresentation" : 0,
						"default_fontsize" : 12.0,
						"default_fontface" : 0,
						"default_fontname" : "Arial",
						"gridonopen" : 0,
						"gridsize" : [ 5.0, 5.0 ],
						"gridsnaponopen" : 0,
						"statusbarvisible" : 2,
						"toolbarvisible" : 1,
						"boxanimatetime" : 200,
						"imprint" : 0,
						"enablehscroll" : 1,
						"enablevscroll" : 1,
						"devicewidth" : 0.0,
						"description" : "",
						"digest" : "",
						"tags" : "",
						"boxes" : [ 							{
								"box" : 								{
									"fontname" : "Arial",
									"fontsize" : 12.0,
									"id" : "obj-9",
									"maxclass" : "newobj",
									"numinlets" : 1,
									"numoutlets" : 2,
									"outlettype" : [ "bang", "bang" ],
									"patching_rect" : [ 426.0, 99.0, 34.0, 20.0 ],
									"text" : "t b b"
								}

							}
, 							{
								"box" : 								{
									"fontname" : "Arial",
									"fontsize" : 12.0,
									"id" : "obj-8",
									"maxclass" : "newobj",
									"numinlets" : 2,
									"numoutlets" : 2,
									"outlettype" : [ "", "" ],
									"patching_rect" : [ 423.0, 169.5, 40.0, 20.0 ],
									"presentation_rect" : [ 250.0, 173.5, 0.0, 0.0 ],
									"text" : "zl reg"
								}

							}
, 							{
								"box" : 								{
									"fontname" : "Arial",
									"fontsize" : 12.0,
									"id" : "obj-7",
									"maxclass" : "newobj",
									"numinlets" : 2,
									"numoutlets" : 2,
									"outlettype" : [ "", "" ],
									"patching_rect" : [ 470.5, 169.5, 40.0, 20.0 ],
									"text" : "zl reg"
								}

							}
, 							{
								"box" : 								{
									"comment" : "",
									"id" : "obj-2",
									"maxclass" : "inlet",
									"numinlets" : 0,
									"numoutlets" : 1,
									"outlettype" : [ "" ],
									"patching_rect" : [ 426.0, 53.0, 25.0, 25.0 ]
								}

							}
, 							{
								"box" : 								{
									"fontname" : "Arial",
									"fontsize" : 12.0,
									"id" : "obj-1",
									"maxclass" : "newobj",
									"numinlets" : 1,
									"numoutlets" : 1,
									"outlettype" : [ "" ],
									"patching_rect" : [ 45.101067, 329.5, 45.0, 20.0 ],
									"saved_object_attributes" : 									{
										"ftm_scope" : 1,
										"ftm_objref_conv" : 0
									}
,
									"text" : "ftm.list"
								}

							}
, 							{
								"box" : 								{
									"fontname" : "Arial",
									"fontsize" : 12.0,
									"id" : "obj-29",
									"maxclass" : "newobj",
									"numinlets" : 1,
									"numoutlets" : 3,
									"outlettype" : [ "", "", "" ],
									"patching_rect" : [ 102.830322, 79.0, 179.0, 20.0 ],
									"text" : "jcom.oscroute /dataSet /column"
								}

							}
, 							{
								"box" : 								{
									"fontname" : "Arial",
									"fontsize" : 12.0,
									"id" : "obj-31",
									"maxclass" : "newobj",
									"numinlets" : 1,
									"numoutlets" : 2,
									"outlettype" : [ "", "clear" ],
									"patcher" : 									{
										"fileversion" : 1,
										"appversion" : 										{
											"major" : 6,
											"minor" : 0,
											"revision" : 5
										}
,
										"rect" : [ 25.0, 69.0, 640.0, 480.0 ],
										"bglocked" : 0,
										"openinpresentation" : 0,
										"default_fontsize" : 12.0,
										"default_fontface" : 0,
										"default_fontname" : "Arial",
										"gridonopen" : 0,
										"gridsize" : [ 5.0, 5.0 ],
										"gridsnaponopen" : 0,
										"statusbarvisible" : 2,
										"toolbarvisible" : 1,
										"boxanimatetime" : 200,
										"imprint" : 0,
										"enablehscroll" : 1,
										"enablevscroll" : 1,
										"devicewidth" : 0.0,
										"description" : "",
										"digest" : "",
										"tags" : "",
										"boxes" : [ 											{
												"box" : 												{
													"comment" : "",
													"id" : "obj-1",
													"maxclass" : "outlet",
													"numinlets" : 1,
													"numoutlets" : 0,
													"patching_rect" : [ 179.0, 237.25, 25.0, 25.0 ]
												}

											}
, 											{
												"box" : 												{
													"fontname" : "Arial",
													"fontsize" : 12.0,
													"frgb" : [ 0.0, 0.0, 0.0, 1.0 ],
													"id" : "obj-8",
													"linecount" : 2,
													"maxclass" : "comment",
													"numinlets" : 1,
													"numoutlets" : 0,
													"patching_rect" : [ 239.0, 131.25, 150.0, 34.0 ],
													"text" : "Assing chosed dataset and populate umenu"
												}

											}
, 											{
												"box" : 												{
													"fontname" : "Arial",
													"fontsize" : 12.0,
													"frgb" : [ 0.0, 0.0, 0.0, 1.0 ],
													"id" : "obj-4",
													"maxclass" : "comment",
													"numinlets" : 1,
													"numoutlets" : 0,
													"patching_rect" : [ 298.0, 290.25, 71.0, 20.0 ],
													"text" : "to UMENU "
												}

											}
, 											{
												"box" : 												{
													"fontname" : "Arial",
													"fontsize" : 12.0,
													"id" : "obj-127",
													"maxclass" : "newobj",
													"numinlets" : 1,
													"numoutlets" : 2,
													"outlettype" : [ "", "clear" ],
													"patcher" : 													{
														"fileversion" : 1,
														"appversion" : 														{
															"major" : 6,
															"minor" : 0,
															"revision" : 5
														}
,
														"rect" : [ 343.0, 218.0, 1097.0, 686.0 ],
														"bglocked" : 0,
														"openinpresentation" : 0,
														"default_fontsize" : 12.0,
														"default_fontface" : 0,
														"default_fontname" : "Arial",
														"gridonopen" : 0,
														"gridsize" : [ 5.0, 5.0 ],
														"gridsnaponopen" : 0,
														"statusbarvisible" : 2,
														"toolbarvisible" : 1,
														"boxanimatetime" : 200,
														"imprint" : 0,
														"enablehscroll" : 1,
														"enablevscroll" : 1,
														"devicewidth" : 0.0,
														"description" : "",
														"digest" : "",
														"tags" : "",
														"boxes" : [ 															{
																"box" : 																{
																	"fontname" : "Arial",
																	"fontsize" : 12.0,
																	"id" : "obj-158",
																	"maxclass" : "newobj",
																	"numinlets" : 3,
																	"numoutlets" : 1,
																	"outlettype" : [ "" ],
																	"patcher" : 																	{
																		"fileversion" : 1,
																		"appversion" : 																		{
																			"major" : 6,
																			"minor" : 0,
																			"revision" : 5
																		}
,
																		"rect" : [ 470.0, 478.0, 892.0, 494.0 ],
																		"bglocked" : 0,
																		"openinpresentation" : 0,
																		"default_fontsize" : 12.0,
																		"default_fontface" : 0,
																		"default_fontname" : "Arial",
																		"gridonopen" : 0,
																		"gridsize" : [ 5.0, 5.0 ],
																		"gridsnaponopen" : 0,
																		"statusbarvisible" : 2,
																		"toolbarvisible" : 1,
																		"boxanimatetime" : 200,
																		"imprint" : 0,
																		"enablehscroll" : 1,
																		"enablevscroll" : 1,
																		"devicewidth" : 0.0,
																		"description" : "",
																		"digest" : "",
																		"tags" : "",
																		"boxes" : [ 																			{
																				"box" : 																				{
																					"fontname" : "Arial",
																					"fontsize" : 12.0,
																					"id" : "obj-104",
																					"maxclass" : "newobj",
																					"numinlets" : 2,
																					"numoutlets" : 2,
																					"outlettype" : [ "bang", "" ],
																					"patching_rect" : [ 401.6875, 360.999878, 36.0, 20.0 ],
																					"text" : "sel 1"
																				}

																			}
, 																			{
																				"box" : 																				{
																					"fontname" : "Arial",
																					"fontsize" : 12.0,
																					"id" : "obj-103",
																					"maxclass" : "newobj",
																					"numinlets" : 2,
																					"numoutlets" : 2,
																					"outlettype" : [ "", "" ],
																					"patching_rect" : [ 401.6875, 424.999878, 77.0, 20.0 ],
																					"text" : "zl reg"
																				}

																			}
, 																			{
																				"box" : 																				{
																					"fontname" : "Arial",
																					"fontsize" : 12.0,
																					"id" : "obj-102",
																					"maxclass" : "newobj",
																					"numinlets" : 2,
																					"numoutlets" : 1,
																					"outlettype" : [ "int" ],
																					"patching_rect" : [ 401.6875, 326.0, 32.5, 20.0 ],
																					"text" : "=="
																				}

																			}
, 																			{
																				"box" : 																				{
																					"fontname" : "Arial",
																					"fontsize" : 12.0,
																					"id" : "obj-101",
																					"maxclass" : "newobj",
																					"numinlets" : 2,
																					"numoutlets" : 2,
																					"outlettype" : [ "", "" ],
																					"patching_rect" : [ 278.0, 501.0, 49.0, 20.0 ],
																					"text" : "zl iter 1"
																				}

																			}
, 																			{
																				"box" : 																				{
																					"fontname" : "Arial",
																					"fontsize" : 12.0,
																					"id" : "obj-96",
																					"maxclass" : "newobj",
																					"numinlets" : 2,
																					"numoutlets" : 2,
																					"outlettype" : [ "", "" ],
																					"patching_rect" : [ 250.0, 467.333252, 47.0, 20.0 ],
																					"text" : "zl slice"
																				}

																			}
, 																			{
																				"box" : 																				{
																					"fontname" : "Arial",
																					"fontsize" : 12.0,
																					"id" : "obj-95",
																					"maxclass" : "newobj",
																					"numinlets" : 1,
																					"numoutlets" : 2,
																					"outlettype" : [ "int", "int" ],
																					"patching_rect" : [ 237.5, 80.0, 32.5, 20.0 ],
																					"text" : "t i i"
																				}

																			}
, 																			{
																				"box" : 																				{
																					"fontname" : "Arial",
																					"fontsize" : 12.0,
																					"id" : "obj-90",
																					"maxclass" : "newobj",
																					"numinlets" : 2,
																					"numoutlets" : 1,
																					"outlettype" : [ "int" ],
																					"patching_rect" : [ 278.0, 357.999878, 39.0, 20.0 ],
																					"text" : "-"
																				}

																			}
, 																			{
																				"box" : 																				{
																					"fontname" : "Arial",
																					"fontsize" : 12.0,
																					"id" : "obj-89",
																					"maxclass" : "newobj",
																					"numinlets" : 2,
																					"numoutlets" : 2,
																					"outlettype" : [ "", "" ],
																					"patching_rect" : [ 278.0, 262.0, 39.0, 20.0 ],
																					"text" : "zl len"
																				}

																			}
, 																			{
																				"box" : 																				{
																					"fontname" : "Arial",
																					"fontsize" : 12.0,
																					"id" : "obj-79",
																					"maxclass" : "newobj",
																					"numinlets" : 1,
																					"numoutlets" : 2,
																					"outlettype" : [ "bang", "int" ],
																					"patching_rect" : [ 91.0, 202.0, 77.0, 20.0 ],
																					"text" : "t b i"
																				}

																			}
, 																			{
																				"box" : 																				{
																					"fontname" : "Arial",
																					"fontsize" : 12.0,
																					"id" : "obj-78",
																					"maxclass" : "newobj",
																					"numinlets" : 2,
																					"numoutlets" : 1,
																					"outlettype" : [ "int" ],
																					"patching_rect" : [ 91.0, 254.999878, 77.0, 20.0 ],
																					"text" : "i"
																				}

																			}
, 																			{
																				"box" : 																				{
																					"fontname" : "Arial",
																					"fontsize" : 12.0,
																					"id" : "obj-77",
																					"maxclass" : "newobj",
																					"numinlets" : 2,
																					"numoutlets" : 1,
																					"outlettype" : [ "bang" ],
																					"patching_rect" : [ 91.0, 229.0, 49.0, 20.0 ],
																					"text" : "delay 5"
																				}

																			}
, 																			{
																				"box" : 																				{
																					"fontname" : "Arial",
																					"fontsize" : 12.0,
																					"id" : "obj-73",
																					"maxclass" : "newobj",
																					"numinlets" : 1,
																					"numoutlets" : 3,
																					"outlettype" : [ "bang", "bang", "int" ],
																					"patching_rect" : [ 229.0, 311.0, 88.0, 20.0 ],
																					"text" : "t b b i"
																				}

																			}
, 																			{
																				"box" : 																				{
																					"fontname" : "Arial",
																					"fontsize" : 12.0,
																					"id" : "obj-59",
																					"maxclass" : "newobj",
																					"numinlets" : 2,
																					"numoutlets" : 2,
																					"outlettype" : [ "", "" ],
																					"patching_rect" : [ 303.0, 424.999878, 77.0, 20.0 ],
																					"text" : "zl reg"
																				}

																			}
, 																			{
																				"box" : 																				{
																					"fontname" : "Arial",
																					"fontsize" : 12.0,
																					"id" : "obj-47",
																					"maxclass" : "newobj",
																					"numinlets" : 2,
																					"numoutlets" : 1,
																					"outlettype" : [ "int" ],
																					"patching_rect" : [ 278.0, 168.0, 32.5, 20.0 ],
																					"text" : "- 1"
																				}

																			}
, 																			{
																				"box" : 																				{
																					"fontname" : "Arial",
																					"fontsize" : 12.0,
																					"id" : "obj-46",
																					"maxclass" : "newobj",
																					"numinlets" : 2,
																					"numoutlets" : 1,
																					"outlettype" : [ "" ],
																					"patching_rect" : [ 278.0, 202.0, 44.0, 20.0 ],
																					"text" : "thresh"
																				}

																			}
, 																			{
																				"box" : 																				{
																					"fontname" : "Arial",
																					"fontsize" : 12.0,
																					"id" : "obj-45",
																					"maxclass" : "newobj",
																					"numinlets" : 2,
																					"numoutlets" : 3,
																					"outlettype" : [ "bang", "bang", "int" ],
																					"patching_rect" : [ 251.0, 138.0, 46.0, 20.0 ],
																					"text" : "uzi"
																				}

																			}
, 																			{
																				"box" : 																				{
																					"fontname" : "Arial",
																					"fontsize" : 12.0,
																					"id" : "obj-44",
																					"maxclass" : "newobj",
																					"numinlets" : 1,
																					"numoutlets" : 2,
																					"outlettype" : [ "bang", "int" ],
																					"patching_rect" : [ 251.0, 110.0, 46.0, 20.0 ],
																					"text" : "t b i"
																				}

																			}
, 																			{
																				"box" : 																				{
																					"fontname" : "Arial",
																					"fontsize" : 12.0,
																					"frgb" : [ 0.0, 0.0, 0.0, 1.0 ],
																					"id" : "obj-2",
																					"linecount" : 2,
																					"maxclass" : "comment",
																					"numinlets" : 1,
																					"numoutlets" : 0,
																					"patching_rect" : [ 336.0, 55.0, 150.0, 34.0 ],
																					"text" : "numerate columns that doesn't have a name\n"
																				}

																			}
, 																			{
																				"box" : 																				{
																					"fontname" : "Arial",
																					"fontsize" : 12.0,
																					"id" : "obj-28",
																					"maxclass" : "newobj",
																					"numinlets" : 5,
																					"numoutlets" : 4,
																					"outlettype" : [ "int", "", "", "int" ],
																					"patching_rect" : [ 91.0, 175.0, 105.25, 20.0 ],
																					"text" : "counter 0 20"
																				}

																			}
, 																			{
																				"box" : 																				{
																					"comment" : "",
																					"id" : "obj-154",
																					"maxclass" : "inlet",
																					"numinlets" : 0,
																					"numoutlets" : 1,
																					"outlettype" : [ "" ],
																					"patching_rect" : [ 91.0, 117.0, 25.0, 25.0 ]
																				}

																			}
, 																			{
																				"box" : 																				{
																					"comment" : "",
																					"id" : "obj-155",
																					"maxclass" : "inlet",
																					"numinlets" : 0,
																					"numoutlets" : 1,
																					"outlettype" : [ "bang" ],
																					"patching_rect" : [ 155.6875, 117.0, 25.0, 25.0 ]
																				}

																			}
, 																			{
																				"box" : 																				{
																					"comment" : "",
																					"id" : "obj-156",
																					"maxclass" : "inlet",
																					"numinlets" : 0,
																					"numoutlets" : 1,
																					"outlettype" : [ "" ],
																					"patching_rect" : [ 237.5, 33.0, 25.0, 25.0 ]
																				}

																			}
, 																			{
																				"box" : 																				{
																					"comment" : "",
																					"id" : "obj-157",
																					"maxclass" : "outlet",
																					"numinlets" : 1,
																					"numoutlets" : 0,
																					"patching_rect" : [ 278.0, 529.333252, 25.0, 25.0 ]
																				}

																			}
 ],
																		"lines" : [ 																			{
																				"patchline" : 																				{
																					"destination" : [ "obj-157", 0 ],
																					"disabled" : 0,
																					"hidden" : 0,
																					"source" : [ "obj-101", 0 ]
																				}

																			}
, 																			{
																				"patchline" : 																				{
																					"destination" : [ "obj-104", 0 ],
																					"disabled" : 0,
																					"hidden" : 0,
																					"source" : [ "obj-102", 0 ]
																				}

																			}
, 																			{
																				"patchline" : 																				{
																					"destination" : [ "obj-101", 0 ],
																					"disabled" : 0,
																					"hidden" : 0,
																					"midpoints" : [ 411.1875, 485.499939, 287.5, 485.499939 ],
																					"source" : [ "obj-103", 0 ]
																				}

																			}
, 																			{
																				"patchline" : 																				{
																					"destination" : [ "obj-103", 0 ],
																					"disabled" : 0,
																					"hidden" : 0,
																					"source" : [ "obj-104", 0 ]
																				}

																			}
, 																			{
																				"patchline" : 																				{
																					"destination" : [ "obj-28", 0 ],
																					"disabled" : 0,
																					"hidden" : 0,
																					"source" : [ "obj-154", 0 ]
																				}

																			}
, 																			{
																				"patchline" : 																				{
																					"destination" : [ "obj-28", 3 ],
																					"disabled" : 0,
																					"hidden" : 0,
																					"source" : [ "obj-155", 0 ]
																				}

																			}
, 																			{
																				"patchline" : 																				{
																					"destination" : [ "obj-95", 0 ],
																					"disabled" : 0,
																					"hidden" : 0,
																					"source" : [ "obj-156", 0 ]
																				}

																			}
, 																			{
																				"patchline" : 																				{
																					"destination" : [ "obj-79", 0 ],
																					"disabled" : 0,
																					"hidden" : 0,
																					"source" : [ "obj-28", 0 ]
																				}

																			}
, 																			{
																				"patchline" : 																				{
																					"destination" : [ "obj-45", 1 ],
																					"disabled" : 0,
																					"hidden" : 0,
																					"source" : [ "obj-44", 1 ]
																				}

																			}
, 																			{
																				"patchline" : 																				{
																					"destination" : [ "obj-45", 0 ],
																					"disabled" : 0,
																					"hidden" : 0,
																					"source" : [ "obj-44", 0 ]
																				}

																			}
, 																			{
																				"patchline" : 																				{
																					"destination" : [ "obj-47", 0 ],
																					"disabled" : 0,
																					"hidden" : 0,
																					"source" : [ "obj-45", 2 ]
																				}

																			}
, 																			{
																				"patchline" : 																				{
																					"destination" : [ "obj-59", 1 ],
																					"disabled" : 0,
																					"hidden" : 0,
																					"midpoints" : [ 287.5, 226.999939, 370.5, 226.999939 ],
																					"source" : [ "obj-46", 0 ]
																				}

																			}
, 																			{
																				"patchline" : 																				{
																					"destination" : [ "obj-89", 0 ],
																					"disabled" : 0,
																					"hidden" : 0,
																					"source" : [ "obj-46", 0 ]
																				}

																			}
, 																			{
																				"patchline" : 																				{
																					"destination" : [ "obj-46", 0 ],
																					"disabled" : 0,
																					"hidden" : 0,
																					"source" : [ "obj-47", 0 ]
																				}

																			}
, 																			{
																				"patchline" : 																				{
																					"destination" : [ "obj-96", 0 ],
																					"disabled" : 0,
																					"hidden" : 0,
																					"midpoints" : [ 312.5, 449.0, 259.5, 449.0 ],
																					"source" : [ "obj-59", 0 ]
																				}

																			}
, 																			{
																				"patchline" : 																				{
																					"destination" : [ "obj-59", 0 ],
																					"disabled" : 0,
																					"hidden" : 0,
																					"source" : [ "obj-73", 0 ]
																				}

																			}
, 																			{
																				"patchline" : 																				{
																					"destination" : [ "obj-90", 1 ],
																					"disabled" : 0,
																					"hidden" : 0,
																					"source" : [ "obj-73", 2 ]
																				}

																			}
, 																			{
																				"patchline" : 																				{
																					"destination" : [ "obj-90", 0 ],
																					"disabled" : 0,
																					"hidden" : 0,
																					"source" : [ "obj-73", 1 ]
																				}

																			}
, 																			{
																				"patchline" : 																				{
																					"destination" : [ "obj-78", 0 ],
																					"disabled" : 0,
																					"hidden" : 0,
																					"source" : [ "obj-77", 0 ]
																				}

																			}
, 																			{
																				"patchline" : 																				{
																					"destination" : [ "obj-102", 0 ],
																					"disabled" : 0,
																					"hidden" : 0,
																					"midpoints" : [ 100.5, 302.0, 411.1875, 302.0 ],
																					"source" : [ "obj-78", 0 ]
																				}

																			}
, 																			{
																				"patchline" : 																				{
																					"destination" : [ "obj-73", 0 ],
																					"disabled" : 0,
																					"hidden" : 0,
																					"midpoints" : [ 100.5, 302.499939, 238.5, 302.499939 ],
																					"source" : [ "obj-78", 0 ]
																				}

																			}
, 																			{
																				"patchline" : 																				{
																					"destination" : [ "obj-77", 0 ],
																					"disabled" : 0,
																					"hidden" : 0,
																					"source" : [ "obj-79", 0 ]
																				}

																			}
, 																			{
																				"patchline" : 																				{
																					"destination" : [ "obj-78", 1 ],
																					"disabled" : 0,
																					"hidden" : 0,
																					"source" : [ "obj-79", 1 ]
																				}

																			}
, 																			{
																				"patchline" : 																				{
																					"destination" : [ "obj-102", 1 ],
																					"disabled" : 0,
																					"hidden" : 0,
																					"midpoints" : [ 287.5, 286.0, 424.6875, 286.0 ],
																					"source" : [ "obj-89", 0 ]
																				}

																			}
, 																			{
																				"patchline" : 																				{
																					"destination" : [ "obj-90", 0 ],
																					"disabled" : 0,
																					"hidden" : 0,
																					"source" : [ "obj-89", 0 ]
																				}

																			}
, 																			{
																				"patchline" : 																				{
																					"destination" : [ "obj-96", 1 ],
																					"disabled" : 0,
																					"hidden" : 0,
																					"source" : [ "obj-90", 0 ]
																				}

																			}
, 																			{
																				"patchline" : 																				{
																					"destination" : [ "obj-28", 4 ],
																					"disabled" : 0,
																					"hidden" : 0,
																					"midpoints" : [ 247.0, 111.0, 186.75, 111.0 ],
																					"source" : [ "obj-95", 0 ]
																				}

																			}
, 																			{
																				"patchline" : 																				{
																					"destination" : [ "obj-44", 0 ],
																					"disabled" : 0,
																					"hidden" : 0,
																					"source" : [ "obj-95", 1 ]
																				}

																			}
, 																			{
																				"patchline" : 																				{
																					"destination" : [ "obj-101", 0 ],
																					"disabled" : 0,
																					"hidden" : 0,
																					"source" : [ "obj-96", 1 ]
																				}

																			}
 ],
																		"dependency_cache" : [  ]
																	}
,
																	"patching_rect" : [ 490.0, 525.0, 152.0, 20.0 ],
																	"saved_object_attributes" : 																	{
																		"globalpatchername" : "",
																		"fontface" : 0,
																		"fontsize" : 12.0,
																		"default_fontface" : 0,
																		"digest" : "",
																		"default_fontname" : "Arial",
																		"tags" : "",
																		"default_fontsize" : 12.0,
																		"fontname" : "Arial",
																		"description" : ""
																	}
,
																	"text" : "p numerateColumns"
																}

															}
, 															{
																"box" : 																{
																	"fontname" : "Arial",
																	"fontsize" : 12.0,
																	"id" : "obj-34",
																	"maxclass" : "newobj",
																	"numinlets" : 1,
																	"numoutlets" : 3,
																	"outlettype" : [ "", "bang", "clear" ],
																	"patching_rect" : [ 381.099854, 395.285187, 140.463272, 20.0 ],
																	"text" : "t l b clear"
																}

															}
, 															{
																"box" : 																{
																	"fontname" : "Arial",
																	"fontsize" : 12.0,
																	"id" : "obj-27",
																	"maxclass" : "newobj",
																	"numinlets" : 1,
																	"numoutlets" : 2,
																	"outlettype" : [ "", "bang" ],
																	"patching_rect" : [ 416.099854, 476.333344, 81.970093, 20.0 ],
																	"text" : "t l b"
																}

															}
, 															{
																"box" : 																{
																	"fontname" : "Arial",
																	"fontsize" : 12.0,
																	"id" : "obj-26",
																	"maxclass" : "newobj",
																	"numinlets" : 2,
																	"numoutlets" : 2,
																	"outlettype" : [ "", "" ],
																	"patching_rect" : [ 381.099854, 447.057587, 54.0, 20.0 ],
																	"text" : "route int"
																}

															}
, 															{
																"box" : 																{
																	"fontname" : "Arial",
																	"fontsize" : 12.0,
																	"id" : "obj-48",
																	"maxclass" : "newobj",
																	"numinlets" : 2,
																	"numoutlets" : 1,
																	"outlettype" : [ "bang" ],
																	"patching_rect" : [ 381.099854, 244.65062, 56.0, 20.0 ],
																	"text" : "delay 10"
																}

															}
, 															{
																"box" : 																{
																	"fontname" : "Arial",
																	"fontsize" : 12.0,
																	"id" : "obj-59",
																	"maxclass" : "newobj",
																	"numinlets" : 2,
																	"numoutlets" : 2,
																	"outlettype" : [ "", "" ],
																	"patching_rect" : [ 381.099854, 421.285187, 49.0, 20.0 ],
																	"text" : "zl iter 1"
																}

															}
, 															{
																"box" : 																{
																	"fontname" : "Arial",
																	"fontsize" : 12.0,
																	"id" : "obj-41",
																	"maxclass" : "newobj",
																	"numinlets" : 1,
																	"numoutlets" : 2,
																	"outlettype" : [ "", "" ],
																	"patching_rect" : [ 95.5, 85.5, 32.5, 20.0 ],
																	"text" : "t l l"
																}

															}
, 															{
																"box" : 																{
																	"fontname" : "Arial",
																	"fontsize" : 12.0,
																	"id" : "obj-35",
																	"maxclass" : "newobj",
																	"numinlets" : 1,
																	"numoutlets" : 1,
																	"outlettype" : [ "" ],
																	"patching_rect" : [ 381.099854, 368.740326, 45.0, 20.0 ],
																	"saved_object_attributes" : 																	{
																		"ftm_scope" : 0,
																		"ftm_objref_conv" : 0
																	}
,
																	"text" : "ftm.list"
																}

															}
, 															{
																"box" : 																{
																	"#init" : "",
																	"#loadbang" : 0,
																	"#triggerall" : 0,
																	"#untuple" : 0,
																	"fontname" : "Arial",
																	"fontsize" : 12.0,
																	"ftm_objref_conv" : 0,
																	"ftm_scope" : 0,
																	"id" : "obj-52",
																	"maxclass" : "ftm.mess",
																	"numinlets" : 2,
																	"numoutlets" : 1,
																	"outlettype" : [ "" ],
																	"patching_rect" : [ 381.099854, 338.967896, 103.430046, 18.0 ],
																	"presentation_rect" : [ 381.099854, 338.967896, 103.430046, 18.0 ],
																	"text" : [ "_($1 getrow 0 0 $2)" ]
																}

															}
, 															{
																"box" : 																{
																	"fontname" : "Arial",
																	"fontsize" : 12.0,
																	"id" : "obj-29",
																	"maxclass" : "newobj",
																	"numinlets" : 1,
																	"numoutlets" : 2,
																	"outlettype" : [ "bang", "" ],
																	"patching_rect" : [ 381.099854, 212.878189, 122.5, 20.0 ],
																	"text" : "t b l"
																}

															}
, 															{
																"box" : 																{
																	"#init" : "",
																	"#loadbang" : 0,
																	"#triggerall" : 0,
																	"#untuple" : 0,
																	"fontname" : "Arial",
																	"fontsize" : 12.0,
																	"ftm_objref_conv" : 0,
																	"ftm_scope" : 0,
																	"id" : "obj-30",
																	"maxclass" : "ftm.mess",
																	"numinlets" : 2,
																	"numoutlets" : 1,
																	"outlettype" : [ "" ],
																	"patching_rect" : [ 381.099854, 277.423035, 112.76799, 18.0 ],
																	"presentation_rect" : [ 381.099854, 277.423035, 112.76799, 18.0 ],
																	"text" : [ "_$matColnames_exa" ]
																}

															}
, 															{
																"box" : 																{
																	"fontname" : "Arial",
																	"fontsize" : 12.0,
																	"id" : "obj-32",
																	"maxclass" : "newobj",
																	"numinlets" : 1,
																	"numoutlets" : 1,
																	"outlettype" : [ "" ],
																	"patching_rect" : [ 381.099854, 181.105774, 81.0, 20.0 ],
																	"text" : "prepend #set"
																}

															}
, 															{
																"box" : 																{
																	"fontname" : "Arial",
																	"fontsize" : 12.0,
																	"id" : "obj-25",
																	"maxclass" : "newobj",
																	"numinlets" : 1,
																	"numoutlets" : 1,
																	"outlettype" : [ "" ],
																	"patcher" : 																	{
																		"fileversion" : 1,
																		"appversion" : 																		{
																			"major" : 6,
																			"minor" : 0,
																			"revision" : 5
																		}
,
																		"rect" : [ 29.0, 69.0, 640.0, 480.0 ],
																		"bglocked" : 0,
																		"openinpresentation" : 0,
																		"default_fontsize" : 12.0,
																		"default_fontface" : 0,
																		"default_fontname" : "Arial",
																		"gridonopen" : 0,
																		"gridsize" : [ 5.0, 5.0 ],
																		"gridsnaponopen" : 0,
																		"statusbarvisible" : 2,
																		"toolbarvisible" : 1,
																		"boxanimatetime" : 200,
																		"imprint" : 0,
																		"enablehscroll" : 1,
																		"enablevscroll" : 1,
																		"devicewidth" : 0.0,
																		"description" : "",
																		"digest" : "",
																		"tags" : "",
																		"boxes" : [ 																			{
																				"box" : 																				{
																					"fontname" : "Arial",
																					"fontsize" : 12.0,
																					"id" : "obj-7",
																					"maxclass" : "newobj",
																					"numinlets" : 1,
																					"numoutlets" : 1,
																					"outlettype" : [ "" ],
																					"patching_rect" : [ 87.0, 266.458496, 73.0, 20.0 ],
																					"text" : "fromsymbol"
																				}

																			}
, 																			{
																				"box" : 																				{
																					"fontname" : "Arial",
																					"fontsize" : 12.0,
																					"frgb" : [ 0.0, 0.0, 0.0, 1.0 ],
																					"id" : "obj-6",
																					"linecount" : 3,
																					"maxclass" : "comment",
																					"numinlets" : 1,
																					"numoutlets" : 0,
																					"patching_rect" : [ 277.0, 220.0, 156.0, 48.0 ],
																					"text" : "prepend matColnames_ to match de mat that contains this col names in "
																				}

																			}
, 																			{
																				"box" : 																				{
																					"fontname" : "Arial",
																					"fontsize" : 12.0,
																					"id" : "obj-12",
																					"maxclass" : "newobj",
																					"numinlets" : 3,
																					"numoutlets" : 1,
																					"outlettype" : [ "int" ],
																					"patching_rect" : [ 87.0, 187.874847, 46.0, 20.0 ],
																					"text" : "itoa"
																				}

																			}
, 																			{
																				"box" : 																				{
																					"fontname" : "Arial",
																					"fontsize" : 12.0,
																					"id" : "obj-10",
																					"maxclass" : "newobj",
																					"numinlets" : 3,
																					"numoutlets" : 1,
																					"outlettype" : [ "list" ],
																					"patching_rect" : [ 50.0, 135.0, 46.0, 20.0 ],
																					"text" : "atoi"
																				}

																			}
, 																			{
																				"box" : 																				{
																					"fontname" : "Arial",
																					"fontsize" : 12.0,
																					"id" : "obj-9",
																					"maxclass" : "newobj",
																					"numinlets" : 2,
																					"numoutlets" : 2,
																					"outlettype" : [ "", "" ],
																					"patching_rect" : [ 50.0, 161.0, 56.0, 20.0 ],
																					"text" : "zl nth 13"
																				}

																			}
, 																			{
																				"box" : 																				{
																					"fontname" : "Arial",
																					"fontsize" : 12.0,
																					"id" : "obj-8",
																					"maxclass" : "newobj",
																					"numinlets" : 1,
																					"numoutlets" : 1,
																					"outlettype" : [ "int" ],
																					"patcher" : 																					{
																						"fileversion" : 1,
																						"appversion" : 																						{
																							"major" : 6,
																							"minor" : 0,
																							"revision" : 5
																						}
,
																						"rect" : [ 29.0, 69.0, 640.0, 480.0 ],
																						"bglocked" : 0,
																						"openinpresentation" : 0,
																						"default_fontsize" : 12.0,
																						"default_fontface" : 0,
																						"default_fontname" : "Arial",
																						"gridonopen" : 0,
																						"gridsize" : [ 5.0, 5.0 ],
																						"gridsnaponopen" : 0,
																						"statusbarvisible" : 2,
																						"toolbarvisible" : 1,
																						"boxanimatetime" : 200,
																						"imprint" : 0,
																						"enablehscroll" : 1,
																						"enablevscroll" : 1,
																						"devicewidth" : 0.0,
																						"description" : "",
																						"digest" : "",
																						"tags" : "",
																						"boxes" : [ 																							{
																								"box" : 																								{
																									"fontname" : "Arial",
																									"fontsize" : 12.0,
																									"frgb" : [ 0.0, 0.0, 0.0, 1.0 ],
																									"id" : "obj-2",
																									"linecount" : 4,
																									"maxclass" : "comment",
																									"numinlets" : 1,
																									"numoutlets" : 0,
																									"patching_rect" : [ 183.0, 167.0, 173.0, 62.0 ],
																									"text" : "to match ftm's terminology, prepend $ before incoming ID and remove space between them"
																								}

																							}
, 																							{
																								"box" : 																								{
																									"fontname" : "Arial",
																									"fontsize" : 12.0,
																									"id" : "obj-50",
																									"maxclass" : "newobj",
																									"numinlets" : 2,
																									"numoutlets" : 2,
																									"outlettype" : [ "", "" ],
																									"patching_rect" : [ 95.0, 244.300049, 49.0, 20.0 ],
																									"text" : "zl nth 2"
																								}

																							}
, 																							{
																								"box" : 																								{
																									"fontname" : "Arial",
																									"fontsize" : 12.0,
																									"id" : "obj-45",
																									"maxclass" : "newobj",
																									"numinlets" : 3,
																									"numoutlets" : 1,
																									"outlettype" : [ "list" ],
																									"patching_rect" : [ 95.0, 213.300049, 49.0, 20.0 ],
																									"text" : "atoi"
																								}

																							}
, 																							{
																								"box" : 																								{
																									"fontname" : "Arial",
																									"fontsize" : 12.0,
																									"id" : "obj-43",
																									"maxclass" : "newobj",
																									"numinlets" : 3,
																									"numoutlets" : 1,
																									"outlettype" : [ "int" ],
																									"patching_rect" : [ 95.0, 274.300049, 49.0, 20.0 ],
																									"text" : "itoa"
																								}

																							}
, 																							{
																								"box" : 																								{
																									"fontname" : "Arial",
																									"fontsize" : 12.0,
																									"id" : "obj-39",
																									"maxclass" : "newobj",
																									"numinlets" : 1,
																									"numoutlets" : 2,
																									"outlettype" : [ "\u0024", "" ],
																									"patching_rect" : [ 95.0, 145.0, 41.0, 20.0 ],
																									"text" : "t $ l"
																								}

																							}
, 																							{
																								"box" : 																								{
																									"fontname" : "Arial",
																									"fontsize" : 12.0,
																									"id" : "obj-31",
																									"maxclass" : "newobj",
																									"numinlets" : 2,
																									"numoutlets" : 2,
																									"outlettype" : [ "", "" ],
																									"patching_rect" : [ 95.0, 181.0, 41.0, 20.0 ],
																									"text" : "zl join"
																								}

																							}
, 																							{
																								"box" : 																								{
																									"comment" : "",
																									"id" : "obj-53",
																									"maxclass" : "inlet",
																									"numinlets" : 0,
																									"numoutlets" : 1,
																									"outlettype" : [ "int" ],
																									"patching_rect" : [ 95.0, 85.0, 25.0, 25.0 ]
																								}

																							}
, 																							{
																								"box" : 																								{
																									"comment" : "",
																									"id" : "obj-54",
																									"maxclass" : "outlet",
																									"numinlets" : 1,
																									"numoutlets" : 0,
																									"patching_rect" : [ 95.0, 354.300049, 25.0, 25.0 ]
																								}

																							}
 ],
																						"lines" : [ 																							{
																								"patchline" : 																								{
																									"destination" : [ "obj-45", 0 ],
																									"disabled" : 0,
																									"hidden" : 0,
																									"source" : [ "obj-31", 0 ]
																								}

																							}
, 																							{
																								"patchline" : 																								{
																									"destination" : [ "obj-31", 1 ],
																									"disabled" : 0,
																									"hidden" : 0,
																									"source" : [ "obj-39", 1 ]
																								}

																							}
, 																							{
																								"patchline" : 																								{
																									"destination" : [ "obj-31", 0 ],
																									"disabled" : 0,
																									"hidden" : 0,
																									"source" : [ "obj-39", 0 ]
																								}

																							}
, 																							{
																								"patchline" : 																								{
																									"destination" : [ "obj-54", 0 ],
																									"disabled" : 0,
																									"hidden" : 0,
																									"source" : [ "obj-43", 0 ]
																								}

																							}
, 																							{
																								"patchline" : 																								{
																									"destination" : [ "obj-50", 0 ],
																									"disabled" : 0,
																									"hidden" : 0,
																									"source" : [ "obj-45", 0 ]
																								}

																							}
, 																							{
																								"patchline" : 																								{
																									"destination" : [ "obj-43", 0 ],
																									"disabled" : 0,
																									"hidden" : 0,
																									"source" : [ "obj-50", 1 ]
																								}

																							}
, 																							{
																								"patchline" : 																								{
																									"destination" : [ "obj-39", 0 ],
																									"disabled" : 0,
																									"hidden" : 0,
																									"source" : [ "obj-53", 0 ]
																								}

																							}
 ],
																						"dependency_cache" : [  ]
																					}
,
																					"patching_rect" : [ 87.0, 220.0, 71.0, 20.0 ],
																					"saved_object_attributes" : 																					{
																						"globalpatchername" : "",
																						"fontface" : 0,
																						"fontsize" : 12.0,
																						"default_fontface" : 0,
																						"digest" : "",
																						"default_fontname" : "Arial",
																						"tags" : "",
																						"default_fontsize" : 12.0,
																						"fontname" : "Arial",
																						"description" : ""
																					}
,
																					"text" : "p prepend$"
																				}

																			}
, 																			{
																				"box" : 																				{
																					"fontname" : "Arial",
																					"fontsize" : 12.0,
																					"id" : "obj-24",
																					"maxclass" : "newobj",
																					"numinlets" : 1,
																					"numoutlets" : 1,
																					"outlettype" : [ "" ],
																					"patching_rect" : [ 50.0, 100.0, 139.0, 20.0 ],
																					"text" : "prepend matColnames_"
																				}

																			}
, 																			{
																				"box" : 																				{
																					"comment" : "",
																					"id" : "obj-20",
																					"maxclass" : "inlet",
																					"numinlets" : 0,
																					"numoutlets" : 1,
																					"outlettype" : [ "" ],
																					"patching_rect" : [ 50.0, 40.0, 25.0, 25.0 ]
																				}

																			}
, 																			{
																				"box" : 																				{
																					"comment" : "",
																					"id" : "obj-21",
																					"maxclass" : "outlet",
																					"numinlets" : 1,
																					"numoutlets" : 0,
																					"patching_rect" : [ 87.0, 322.374847, 25.0, 25.0 ]
																				}

																			}
 ],
																		"lines" : [ 																			{
																				"patchline" : 																				{
																					"destination" : [ "obj-9", 0 ],
																					"disabled" : 0,
																					"hidden" : 0,
																					"source" : [ "obj-10", 0 ]
																				}

																			}
, 																			{
																				"patchline" : 																				{
																					"destination" : [ "obj-8", 0 ],
																					"disabled" : 0,
																					"hidden" : 0,
																					"source" : [ "obj-12", 0 ]
																				}

																			}
, 																			{
																				"patchline" : 																				{
																					"destination" : [ "obj-24", 0 ],
																					"disabled" : 0,
																					"hidden" : 0,
																					"source" : [ "obj-20", 0 ]
																				}

																			}
, 																			{
																				"patchline" : 																				{
																					"destination" : [ "obj-10", 0 ],
																					"disabled" : 0,
																					"hidden" : 0,
																					"source" : [ "obj-24", 0 ]
																				}

																			}
, 																			{
																				"patchline" : 																				{
																					"destination" : [ "obj-21", 0 ],
																					"disabled" : 0,
																					"hidden" : 0,
																					"source" : [ "obj-7", 0 ]
																				}

																			}
, 																			{
																				"patchline" : 																				{
																					"destination" : [ "obj-7", 0 ],
																					"disabled" : 0,
																					"hidden" : 0,
																					"source" : [ "obj-8", 0 ]
																				}

																			}
, 																			{
																				"patchline" : 																				{
																					"destination" : [ "obj-12", 0 ],
																					"disabled" : 0,
																					"hidden" : 0,
																					"source" : [ "obj-9", 1 ]
																				}

																			}
 ],
																		"dependency_cache" : [  ]
																	}
,
																	"patching_rect" : [ 381.099854, 149.333344, 55.0, 20.0 ],
																	"saved_object_attributes" : 																	{
																		"globalpatchername" : "",
																		"fontface" : 0,
																		"fontsize" : 12.0,
																		"default_fontface" : 0,
																		"digest" : "",
																		"default_fontname" : "Arial",
																		"tags" : "",
																		"default_fontsize" : 12.0,
																		"fontname" : "Arial",
																		"description" : ""
																	}
,
																	"text" : "p format"
																}

															}
, 															{
																"box" : 																{
																	"fontname" : "Arial",
																	"fontsize" : 12.0,
																	"frgb" : [ 0.0, 0.0, 0.0, 1.0 ],
																	"id" : "obj-5",
																	"linecount" : 4,
																	"maxclass" : "comment",
																	"numinlets" : 1,
																	"numoutlets" : 0,
																	"patching_rect" : [ 191.0, 24.5, 150.0, 62.0 ],
																	"text" : "This patch populate umenu with the column names for the user selected dataset\n"
																}

															}
, 															{
																"box" : 																{
																	"comment" : "",
																	"id" : "obj-1",
																	"maxclass" : "outlet",
																	"numinlets" : 1,
																	"numoutlets" : 0,
																	"patching_rect" : [ 112.75, 401.285187, 25.0, 25.0 ]
																}

															}
, 															{
																"box" : 																{
																	"fontname" : "Verdana",
																	"fontsize" : 10.0,
																	"id" : "obj-112",
																	"maxclass" : "newobj",
																	"numinlets" : 1,
																	"numoutlets" : 1,
																	"outlettype" : [ "" ],
																	"patching_rect" : [ 416.099854, 587.374878, 90.0, 19.0 ],
																	"text" : "prepend append"
																}

															}
, 															{
																"box" : 																{
																	"fontname" : "Arial",
																	"fontsize" : 12.0,
																	"id" : "obj-101",
																	"maxclass" : "newobj",
																	"numinlets" : 1,
																	"numoutlets" : 2,
																	"outlettype" : [ "bang", "" ],
																	"patching_rect" : [ 109.0, 182.65062, 32.5, 20.0 ],
																	"text" : "t b l"
																}

															}
, 															{
																"box" : 																{
																	"#init" : "",
																	"#loadbang" : 0,
																	"#triggerall" : 0,
																	"#untuple" : 0,
																	"fontname" : "Arial",
																	"fontsize" : 12.0,
																	"ftm_objref_conv" : 0,
																	"ftm_scope" : 0,
																	"id" : "obj-96",
																	"maxclass" : "ftm.mess",
																	"numinlets" : 2,
																	"numoutlets" : 1,
																	"outlettype" : [ "" ],
																	"patching_rect" : [ 112.75, 257.374847, 32.032539, 18.0 ],
																	"presentation_rect" : [ 112.75, 257.374847, 32.032539, 18.0 ],
																	"text" : [ "_$exa" ]
																}

															}
, 															{
																"box" : 																{
																	"fontname" : "Arial",
																	"fontsize" : 12.0,
																	"id" : "obj-86",
																	"maxclass" : "newobj",
																	"numinlets" : 1,
																	"numoutlets" : 1,
																	"outlettype" : [ "int" ],
																	"patcher" : 																	{
																		"fileversion" : 1,
																		"appversion" : 																		{
																			"major" : 6,
																			"minor" : 0,
																			"revision" : 5
																		}
,
																		"rect" : [ 29.0, 69.0, 640.0, 480.0 ],
																		"bglocked" : 0,
																		"openinpresentation" : 0,
																		"default_fontsize" : 12.0,
																		"default_fontface" : 0,
																		"default_fontname" : "Arial",
																		"gridonopen" : 0,
																		"gridsize" : [ 5.0, 5.0 ],
																		"gridsnaponopen" : 0,
																		"statusbarvisible" : 2,
																		"toolbarvisible" : 1,
																		"boxanimatetime" : 200,
																		"imprint" : 0,
																		"enablehscroll" : 1,
																		"enablevscroll" : 1,
																		"devicewidth" : 0.0,
																		"description" : "",
																		"digest" : "",
																		"tags" : "",
																		"boxes" : [ 																			{
																				"box" : 																				{
																					"fontname" : "Arial",
																					"fontsize" : 12.0,
																					"frgb" : [ 0.0, 0.0, 0.0, 1.0 ],
																					"id" : "obj-2",
																					"linecount" : 4,
																					"maxclass" : "comment",
																					"numinlets" : 1,
																					"numoutlets" : 0,
																					"patching_rect" : [ 183.0, 167.0, 173.0, 62.0 ],
																					"text" : "to match ftm's terminology, prepend $ before incoming ID and remove space between them"
																				}

																			}
, 																			{
																				"box" : 																				{
																					"fontname" : "Arial",
																					"fontsize" : 12.0,
																					"id" : "obj-50",
																					"maxclass" : "newobj",
																					"numinlets" : 2,
																					"numoutlets" : 2,
																					"outlettype" : [ "", "" ],
																					"patching_rect" : [ 95.0, 244.300049, 49.0, 20.0 ],
																					"text" : "zl nth 2"
																				}

																			}
, 																			{
																				"box" : 																				{
																					"fontname" : "Arial",
																					"fontsize" : 12.0,
																					"id" : "obj-45",
																					"maxclass" : "newobj",
																					"numinlets" : 3,
																					"numoutlets" : 1,
																					"outlettype" : [ "list" ],
																					"patching_rect" : [ 95.0, 213.300049, 49.0, 20.0 ],
																					"text" : "atoi"
																				}

																			}
, 																			{
																				"box" : 																				{
																					"fontname" : "Arial",
																					"fontsize" : 12.0,
																					"id" : "obj-43",
																					"maxclass" : "newobj",
																					"numinlets" : 3,
																					"numoutlets" : 1,
																					"outlettype" : [ "int" ],
																					"patching_rect" : [ 95.0, 274.300049, 49.0, 20.0 ],
																					"text" : "itoa"
																				}

																			}
, 																			{
																				"box" : 																				{
																					"fontname" : "Arial",
																					"fontsize" : 12.0,
																					"id" : "obj-39",
																					"maxclass" : "newobj",
																					"numinlets" : 1,
																					"numoutlets" : 2,
																					"outlettype" : [ "\u0024", "" ],
																					"patching_rect" : [ 95.0, 145.0, 41.0, 20.0 ],
																					"text" : "t $ l"
																				}

																			}
, 																			{
																				"box" : 																				{
																					"fontname" : "Arial",
																					"fontsize" : 12.0,
																					"id" : "obj-31",
																					"maxclass" : "newobj",
																					"numinlets" : 2,
																					"numoutlets" : 2,
																					"outlettype" : [ "", "" ],
																					"patching_rect" : [ 95.0, 181.0, 41.0, 20.0 ],
																					"text" : "zl join"
																				}

																			}
, 																			{
																				"box" : 																				{
																					"comment" : "",
																					"id" : "obj-53",
																					"maxclass" : "inlet",
																					"numinlets" : 0,
																					"numoutlets" : 1,
																					"outlettype" : [ "" ],
																					"patching_rect" : [ 95.0, 85.0, 25.0, 25.0 ]
																				}

																			}
, 																			{
																				"box" : 																				{
																					"comment" : "",
																					"id" : "obj-54",
																					"maxclass" : "outlet",
																					"numinlets" : 1,
																					"numoutlets" : 0,
																					"patching_rect" : [ 95.0, 354.300049, 25.0, 25.0 ]
																				}

																			}
 ],
																		"lines" : [ 																			{
																				"patchline" : 																				{
																					"destination" : [ "obj-45", 0 ],
																					"disabled" : 0,
																					"hidden" : 0,
																					"source" : [ "obj-31", 0 ]
																				}

																			}
, 																			{
																				"patchline" : 																				{
																					"destination" : [ "obj-31", 1 ],
																					"disabled" : 0,
																					"hidden" : 0,
																					"source" : [ "obj-39", 1 ]
																				}

																			}
, 																			{
																				"patchline" : 																				{
																					"destination" : [ "obj-31", 0 ],
																					"disabled" : 0,
																					"hidden" : 0,
																					"source" : [ "obj-39", 0 ]
																				}

																			}
, 																			{
																				"patchline" : 																				{
																					"destination" : [ "obj-54", 0 ],
																					"disabled" : 0,
																					"hidden" : 0,
																					"source" : [ "obj-43", 0 ]
																				}

																			}
, 																			{
																				"patchline" : 																				{
																					"destination" : [ "obj-50", 0 ],
																					"disabled" : 0,
																					"hidden" : 0,
																					"source" : [ "obj-45", 0 ]
																				}

																			}
, 																			{
																				"patchline" : 																				{
																					"destination" : [ "obj-43", 0 ],
																					"disabled" : 0,
																					"hidden" : 0,
																					"source" : [ "obj-50", 1 ]
																				}

																			}
, 																			{
																				"patchline" : 																				{
																					"destination" : [ "obj-39", 0 ],
																					"disabled" : 0,
																					"hidden" : 0,
																					"source" : [ "obj-53", 0 ]
																				}

																			}
 ],
																		"dependency_cache" : [  ]
																	}
,
																	"patching_rect" : [ 109.0, 113.854095, 71.0, 20.0 ],
																	"saved_object_attributes" : 																	{
																		"globalpatchername" : "",
																		"fontface" : 0,
																		"fontsize" : 12.0,
																		"default_fontface" : 0,
																		"digest" : "",
																		"default_fontname" : "Arial",
																		"tags" : "",
																		"default_fontsize" : 12.0,
																		"fontname" : "Arial",
																		"description" : ""
																	}
,
																	"text" : "p prepend$"
																}

															}
, 															{
																"box" : 																{
																	"#init" : "",
																	"#loadbang" : 0,
																	"#triggerall" : 0,
																	"#untuple" : 0,
																	"fontname" : "Arial",
																	"fontsize" : 12.0,
																	"ftm_objref_conv" : 0,
																	"ftm_scope" : 0,
																	"id" : "obj-85",
																	"maxclass" : "ftm.mess",
																	"numinlets" : 2,
																	"numoutlets" : 1,
																	"outlettype" : [ "" ],
																	"patching_rect" : [ 469.529907, 309.195465, 52.033215, 18.0 ],
																	"presentation_rect" : [ 469.529907, 309.195465, 52.033215, 18.0 ],
																	"text" : [ "_($1 cols)" ]
																}

															}
, 															{
																"box" : 																{
																	"fontname" : "Arial",
																	"fontsize" : 12.0,
																	"id" : "obj-98",
																	"maxclass" : "newobj",
																	"numinlets" : 1,
																	"numoutlets" : 1,
																	"outlettype" : [ "" ],
																	"patching_rect" : [ 109.0, 148.333344, 81.0, 20.0 ],
																	"text" : "prepend #set"
																}

															}
, 															{
																"box" : 																{
																	"comment" : "",
																	"id" : "obj-124",
																	"maxclass" : "inlet",
																	"numinlets" : 0,
																	"numoutlets" : 1,
																	"outlettype" : [ "" ],
																	"patching_rect" : [ 95.0, 9.5, 25.0, 25.0 ]
																}

															}
, 															{
																"box" : 																{
																	"comment" : "",
																	"id" : "obj-126",
																	"maxclass" : "outlet",
																	"numinlets" : 1,
																	"numoutlets" : 0,
																	"patching_rect" : [ 416.099854, 665.374878, 25.0, 25.0 ]
																}

															}
 ],
														"lines" : [ 															{
																"patchline" : 																{
																	"destination" : [ "obj-96", 0 ],
																	"disabled" : 0,
																	"hidden" : 0,
																	"midpoints" : [ 132.0, 229.512726, 122.25, 229.512726 ],
																	"source" : [ "obj-101", 1 ]
																}

															}
, 															{
																"patchline" : 																{
																	"destination" : [ "obj-96", 0 ],
																	"disabled" : 0,
																	"hidden" : 0,
																	"midpoints" : [ 118.5, 229.512726, 122.25, 229.512726 ],
																	"source" : [ "obj-101", 0 ]
																}

															}
, 															{
																"patchline" : 																{
																	"destination" : [ "obj-126", 0 ],
																	"disabled" : 0,
																	"hidden" : 0,
																	"source" : [ "obj-112", 0 ]
																}

															}
, 															{
																"patchline" : 																{
																	"destination" : [ "obj-41", 0 ],
																	"disabled" : 0,
																	"hidden" : 0,
																	"midpoints" : [ 104.5, 75.0, 105.0, 75.0 ],
																	"source" : [ "obj-124", 0 ]
																}

															}
, 															{
																"patchline" : 																{
																	"destination" : [ "obj-112", 0 ],
																	"disabled" : 0,
																	"hidden" : 0,
																	"source" : [ "obj-158", 0 ]
																}

															}
, 															{
																"patchline" : 																{
																	"destination" : [ "obj-32", 0 ],
																	"disabled" : 0,
																	"hidden" : 0,
																	"source" : [ "obj-25", 0 ]
																}

															}
, 															{
																"patchline" : 																{
																	"destination" : [ "obj-158", 0 ],
																	"disabled" : 0,
																	"hidden" : 0,
																	"midpoints" : [ 390.599854, 516.528809, 499.5, 516.528809 ],
																	"source" : [ "obj-26", 0 ]
																}

															}
, 															{
																"patchline" : 																{
																	"destination" : [ "obj-27", 0 ],
																	"disabled" : 0,
																	"hidden" : 0,
																	"source" : [ "obj-26", 1 ]
																}

															}
, 															{
																"patchline" : 																{
																	"destination" : [ "obj-112", 0 ],
																	"disabled" : 0,
																	"hidden" : 0,
																	"source" : [ "obj-27", 0 ]
																}

															}
, 															{
																"patchline" : 																{
																	"destination" : [ "obj-30", 0 ],
																	"disabled" : 0,
																	"hidden" : 0,
																	"midpoints" : [ 494.099854, 269.854126, 390.599854, 269.854126 ],
																	"source" : [ "obj-29", 1 ]
																}

															}
, 															{
																"patchline" : 																{
																	"destination" : [ "obj-48", 0 ],
																	"disabled" : 0,
																	"hidden" : 0,
																	"source" : [ "obj-29", 0 ]
																}

															}
, 															{
																"patchline" : 																{
																	"destination" : [ "obj-52", 0 ],
																	"disabled" : 0,
																	"hidden" : 0,
																	"source" : [ "obj-30", 0 ]
																}

															}
, 															{
																"patchline" : 																{
																	"destination" : [ "obj-29", 0 ],
																	"disabled" : 0,
																	"hidden" : 0,
																	"source" : [ "obj-32", 0 ]
																}

															}
, 															{
																"patchline" : 																{
																	"destination" : [ "obj-126", 0 ],
																	"disabled" : 0,
																	"hidden" : 0,
																	"source" : [ "obj-34", 2 ]
																}

															}
, 															{
																"patchline" : 																{
																	"destination" : [ "obj-158", 1 ],
																	"disabled" : 0,
																	"hidden" : 0,
																	"midpoints" : [ 451.331482, 425.642578, 566.0, 425.642578 ],
																	"source" : [ "obj-34", 1 ]
																}

															}
, 															{
																"patchline" : 																{
																	"destination" : [ "obj-59", 0 ],
																	"disabled" : 0,
																	"hidden" : 0,
																	"source" : [ "obj-34", 0 ]
																}

															}
, 															{
																"patchline" : 																{
																	"destination" : [ "obj-34", 0 ],
																	"disabled" : 0,
																	"hidden" : 0,
																	"source" : [ "obj-35", 0 ]
																}

															}
, 															{
																"patchline" : 																{
																	"destination" : [ "obj-25", 0 ],
																	"disabled" : 0,
																	"hidden" : 0,
																	"midpoints" : [ 105.0, 108.416672, 390.599854, 108.416672 ],
																	"source" : [ "obj-41", 0 ]
																}

															}
, 															{
																"patchline" : 																{
																	"destination" : [ "obj-86", 0 ],
																	"disabled" : 0,
																	"hidden" : 0,
																	"source" : [ "obj-41", 1 ]
																}

															}
, 															{
																"patchline" : 																{
																	"destination" : [ "obj-30", 0 ],
																	"disabled" : 0,
																	"hidden" : 0,
																	"source" : [ "obj-48", 0 ]
																}

															}
, 															{
																"patchline" : 																{
																	"destination" : [ "obj-35", 0 ],
																	"disabled" : 0,
																	"hidden" : 0,
																	"source" : [ "obj-52", 0 ]
																}

															}
, 															{
																"patchline" : 																{
																	"destination" : [ "obj-26", 0 ],
																	"disabled" : 0,
																	"hidden" : 0,
																	"source" : [ "obj-59", 0 ]
																}

															}
, 															{
																"patchline" : 																{
																	"destination" : [ "obj-158", 2 ],
																	"disabled" : 0,
																	"hidden" : 0,
																	"midpoints" : [ 479.029907, 331.597717, 632.5, 331.597717 ],
																	"source" : [ "obj-85", 0 ]
																}

															}
, 															{
																"patchline" : 																{
																	"destination" : [ "obj-52", 1 ],
																	"disabled" : 0,
																	"hidden" : 0,
																	"source" : [ "obj-85", 0 ]
																}

															}
, 															{
																"patchline" : 																{
																	"destination" : [ "obj-98", 0 ],
																	"disabled" : 0,
																	"hidden" : 0,
																	"midpoints" : [ 118.5, 135.093719, 118.5, 135.093719 ],
																	"source" : [ "obj-86", 0 ]
																}

															}
, 															{
																"patchline" : 																{
																	"destination" : [ "obj-1", 0 ],
																	"disabled" : 0,
																	"hidden" : 0,
																	"source" : [ "obj-96", 0 ]
																}

															}
, 															{
																"patchline" : 																{
																	"destination" : [ "obj-85", 0 ],
																	"disabled" : 0,
																	"hidden" : 0,
																	"midpoints" : [ 122.25, 307.285156, 479.029907, 307.285156 ],
																	"source" : [ "obj-96", 0 ]
																}

															}
, 															{
																"patchline" : 																{
																	"destination" : [ "obj-101", 0 ],
																	"disabled" : 0,
																	"hidden" : 0,
																	"source" : [ "obj-98", 0 ]
																}

															}
 ],
														"dependency_cache" : [ 															{
																"name" : "ftm.mess.mxo",
																"type" : "iLaX"
															}
, 															{
																"name" : "ftm.list.mxo",
																"type" : "iLaX"
															}
 ]
													}
,
													"patching_rect" : [ 179.0, 184.25, 113.0, 20.0 ],
													"saved_object_attributes" : 													{
														"globalpatchername" : "",
														"fontface" : 0,
														"fontsize" : 12.0,
														"default_fontface" : 0,
														"digest" : "",
														"default_fontname" : "Arial",
														"tags" : "",
														"default_fontsize" : 12.0,
														"fontname" : "Arial",
														"description" : ""
													}
,
													"text" : "p format&fillUmenu"
												}

											}
, 											{
												"box" : 												{
													"comment" : "",
													"id" : "obj-24",
													"maxclass" : "inlet",
													"numinlets" : 0,
													"numoutlets" : 1,
													"outlettype" : [ "" ],
													"patching_rect" : [ 179.0, 124.0, 25.0, 25.0 ]
												}

											}
, 											{
												"box" : 												{
													"comment" : "",
													"id" : "obj-29",
													"maxclass" : "outlet",
													"numinlets" : 1,
													"numoutlets" : 0,
													"patching_rect" : [ 273.0, 237.25, 25.0, 25.0 ]
												}

											}
 ],
										"lines" : [ 											{
												"patchline" : 												{
													"destination" : [ "obj-1", 0 ],
													"disabled" : 0,
													"hidden" : 0,
													"source" : [ "obj-127", 0 ]
												}

											}
, 											{
												"patchline" : 												{
													"destination" : [ "obj-29", 0 ],
													"disabled" : 0,
													"hidden" : 0,
													"source" : [ "obj-127", 1 ]
												}

											}
, 											{
												"patchline" : 												{
													"destination" : [ "obj-127", 0 ],
													"disabled" : 0,
													"hidden" : 0,
													"source" : [ "obj-24", 0 ]
												}

											}
 ],
										"dependency_cache" : [ 											{
												"name" : "ftm.mess.mxo",
												"type" : "iLaX"
											}
, 											{
												"name" : "ftm.list.mxo",
												"type" : "iLaX"
											}
 ]
									}
,
									"patching_rect" : [ 102.830322, 130.5, 241.0, 20.0 ],
									"saved_object_attributes" : 									{
										"globalpatchername" : "",
										"fontface" : 0,
										"fontsize" : 12.0,
										"default_fontface" : 0,
										"digest" : "",
										"default_fontname" : "Arial",
										"tags" : "",
										"default_fontsize" : 12.0,
										"fontname" : "Arial",
										"description" : ""
									}
,
									"text" : "p DatasetX"
								}

							}
, 							{
								"box" : 								{
									"#init" : "",
									"#loadbang" : 0,
									"#triggerall" : 0,
									"#untuple" : 0,
									"fontname" : "Arial",
									"fontsize" : 12.0,
									"ftm_objref_conv" : 0,
									"ftm_scope" : 2,
									"id" : "obj-135",
									"maxclass" : "ftm.mess",
									"numinlets" : 2,
									"numoutlets" : 1,
									"outlettype" : [ "" ],
									"patching_rect" : [ 45.101067, 278.5, 76.729256, 18.0 ],
									"presentation_rect" : [ 45.101067, 278.5, 76.729256, 18.0 ],
									"text" : [ "_($2 colref $1)" ]
								}

							}
, 							{
								"box" : 								{
									"comment" : "",
									"id" : "obj-4",
									"maxclass" : "inlet",
									"numinlets" : 0,
									"numoutlets" : 1,
									"outlettype" : [ "" ],
									"patching_rect" : [ 102.830322, 40.0, 25.0, 25.0 ]
								}

							}
, 							{
								"box" : 								{
									"comment" : "",
									"id" : "obj-14",
									"maxclass" : "outlet",
									"numinlets" : 1,
									"numoutlets" : 0,
									"patching_rect" : [ 45.101067, 386.5, 25.0, 25.0 ]
								}

							}
, 							{
								"box" : 								{
									"comment" : "",
									"id" : "obj-15",
									"maxclass" : "outlet",
									"numinlets" : 1,
									"numoutlets" : 0,
									"patching_rect" : [ 472.0, 224.166656, 25.0, 25.0 ]
								}

							}
 ],
						"lines" : [ 							{
								"patchline" : 								{
									"destination" : [ "obj-14", 0 ],
									"disabled" : 0,
									"hidden" : 0,
									"source" : [ "obj-1", 0 ]
								}

							}
, 							{
								"patchline" : 								{
									"destination" : [ "obj-1", 0 ],
									"disabled" : 0,
									"hidden" : 0,
									"source" : [ "obj-135", 0 ]
								}

							}
, 							{
								"patchline" : 								{
									"destination" : [ "obj-9", 0 ],
									"disabled" : 0,
									"hidden" : 0,
									"source" : [ "obj-2", 0 ]
								}

							}
, 							{
								"patchline" : 								{
									"destination" : [ "obj-135", 0 ],
									"disabled" : 0,
									"hidden" : 0,
									"source" : [ "obj-29", 1 ]
								}

							}
, 							{
								"patchline" : 								{
									"destination" : [ "obj-31", 0 ],
									"disabled" : 0,
									"hidden" : 0,
									"source" : [ "obj-29", 0 ]
								}

							}
, 							{
								"patchline" : 								{
									"destination" : [ "obj-8", 1 ],
									"disabled" : 0,
									"hidden" : 0,
									"source" : [ "obj-29", 1 ]
								}

							}
, 							{
								"patchline" : 								{
									"destination" : [ "obj-135", 1 ],
									"disabled" : 0,
									"hidden" : 0,
									"source" : [ "obj-31", 0 ]
								}

							}
, 							{
								"patchline" : 								{
									"destination" : [ "obj-15", 0 ],
									"disabled" : 0,
									"hidden" : 0,
									"midpoints" : [ 334.330322, 203.0, 481.5, 203.0 ],
									"source" : [ "obj-31", 1 ]
								}

							}
, 							{
								"patchline" : 								{
									"destination" : [ "obj-7", 1 ],
									"disabled" : 0,
									"hidden" : 0,
									"source" : [ "obj-31", 0 ]
								}

							}
, 							{
								"patchline" : 								{
									"destination" : [ "obj-29", 0 ],
									"disabled" : 0,
									"hidden" : 0,
									"midpoints" : [ 113.830322, 65.0 ],
									"source" : [ "obj-4", 0 ]
								}

							}
, 							{
								"patchline" : 								{
									"destination" : [ "obj-135", 1 ],
									"disabled" : 0,
									"hidden" : 0,
									"source" : [ "obj-7", 0 ]
								}

							}
, 							{
								"patchline" : 								{
									"destination" : [ "obj-135", 0 ],
									"disabled" : 0,
									"hidden" : 0,
									"source" : [ "obj-8", 0 ]
								}

							}
, 							{
								"patchline" : 								{
									"destination" : [ "obj-7", 0 ],
									"disabled" : 0,
									"hidden" : 0,
									"midpoints" : [ 450.5, 163.75, 480.0, 163.75 ],
									"source" : [ "obj-9", 1 ]
								}

							}
, 							{
								"patchline" : 								{
									"destination" : [ "obj-8", 0 ],
									"disabled" : 0,
									"hidden" : 0,
									"midpoints" : [ 435.5, 163.75, 432.5, 163.75 ],
									"source" : [ "obj-9", 0 ]
								}

							}
 ],
						"dependency_cache" : [ 							{
								"name" : "ftm.mess.mxo",
								"type" : "iLaX"
							}
, 							{
								"name" : "ftm.list.mxo",
								"type" : "iLaX"
							}
, 							{
								"name" : "jcom.oscroute.mxo",
								"type" : "iLaX"
							}
 ]
					}
,
					"patching_rect" : [ 512.0, 175.5, 110.0, 20.0 ],
					"saved_object_attributes" : 					{
						"globalpatchername" : "",
						"fontface" : 0,
						"fontsize" : 12.0,
						"default_fontface" : 0,
						"digest" : "",
						"default_fontname" : "Arial",
						"tags" : "",
						"default_fontsize" : 12.0,
						"fontname" : "Arial",
						"description" : ""
					}
,
					"text" : "p getData"
				}

			}
, 			{
				"box" : 				{
					"fontname" : "Arial",
					"fontsize" : 12.0,
					"id" : "obj-35",
					"maxclass" : "newobj",
					"numinlets" : 1,
					"numoutlets" : 1,
					"outlettype" : [ "clear" ],
					"patcher" : 					{
						"fileversion" : 1,
						"appversion" : 						{
							"major" : 6,
							"minor" : 0,
							"revision" : 5
						}
,
						"rect" : [ -1091.0, 388.0, 640.0, 480.0 ],
						"bglocked" : 0,
						"openinpresentation" : 0,
						"default_fontsize" : 12.0,
						"default_fontface" : 0,
						"default_fontname" : "Arial",
						"gridonopen" : 0,
						"gridsize" : [ 5.0, 5.0 ],
						"gridsnaponopen" : 0,
						"statusbarvisible" : 2,
						"toolbarvisible" : 1,
						"boxanimatetime" : 200,
						"imprint" : 0,
						"enablehscroll" : 1,
						"enablevscroll" : 1,
						"devicewidth" : 0.0,
						"description" : "",
						"digest" : "",
						"tags" : "",
						"boxes" : [ 							{
								"box" : 								{
									"fontname" : "Arial",
									"fontsize" : 12.0,
									"id" : "obj-3",
									"maxclass" : "newobj",
									"numinlets" : 1,
									"numoutlets" : 1,
									"outlettype" : [ "" ],
									"patching_rect" : [ 50.0, 158.0, 222.0, 20.0 ],
									"text" : "jcom.getModuleNames"
								}

							}
, 							{
								"box" : 								{
									"fontname" : "Arial",
									"fontsize" : 12.0,
									"id" : "obj-1",
									"maxclass" : "newobj",
									"numinlets" : 2,
									"numoutlets" : 2,
									"outlettype" : [ "", "" ],
									"patching_rect" : [ 50.0, 229.0, 101.0, 20.0 ],
									"text" : "route myDataSet"
								}

							}
, 							{
								"box" : 								{
									"fontname" : "Arial",
									"fontsize" : 12.0,
									"id" : "obj-29",
									"maxclass" : "newobj",
									"numinlets" : 1,
									"numoutlets" : 1,
									"outlettype" : [ "int" ],
									"patcher" : 									{
										"fileversion" : 1,
										"appversion" : 										{
											"major" : 6,
											"minor" : 0,
											"revision" : 5
										}
,
										"rect" : [ 818.0, 236.0, 640.0, 480.0 ],
										"bglocked" : 0,
										"openinpresentation" : 0,
										"default_fontsize" : 12.0,
										"default_fontface" : 0,
										"default_fontname" : "Arial",
										"gridonopen" : 0,
										"gridsize" : [ 5.0, 5.0 ],
										"gridsnaponopen" : 0,
										"statusbarvisible" : 2,
										"toolbarvisible" : 1,
										"boxanimatetime" : 200,
										"imprint" : 0,
										"enablehscroll" : 1,
										"enablevscroll" : 1,
										"devicewidth" : 0.0,
										"description" : "",
										"digest" : "",
										"tags" : "",
										"boxes" : [ 											{
												"box" : 												{
													"fontname" : "Arial",
													"fontsize" : 12.0,
													"frgb" : [ 0.0, 0.0, 0.0, 1.0 ],
													"id" : "obj-5",
													"maxclass" : "comment",
													"numinlets" : 1,
													"numoutlets" : 0,
													"patching_rect" : [ 221.0, 128.562256, 185.0, 20.0 ],
													"text" : "This module is mean for plotting"
												}

											}
, 											{
												"box" : 												{
													"fontname" : "Arial",
													"fontsize" : 12.0,
													"frgb" : [ 0.0, 0.0, 0.0, 1.0 ],
													"id" : "obj-4",
													"linecount" : 3,
													"maxclass" : "comment",
													"numinlets" : 1,
													"numoutlets" : 0,
													"patching_rect" : [ 221.0, 154.520752, 185.0, 48.0 ],
													"text" : "I'm returning all the module names, however i just want those referent to a data table.\n"
												}

											}
, 											{
												"box" : 												{
													"fontname" : "Arial",
													"fontsize" : 12.0,
													"id" : "obj-16",
													"maxclass" : "newobj",
													"numinlets" : 3,
													"numoutlets" : 1,
													"outlettype" : [ "int" ],
													"patching_rect" : [ 88.0, 180.520752, 46.0, 20.0 ],
													"text" : "itoa"
												}

											}
, 											{
												"box" : 												{
													"fontname" : "Arial",
													"fontsize" : 12.0,
													"id" : "obj-15",
													"maxclass" : "newobj",
													"numinlets" : 2,
													"numoutlets" : 2,
													"outlettype" : [ "", "" ],
													"patching_rect" : [ 50.0, 154.520752, 57.0, 20.0 ],
													"text" : "zl slice 7"
												}

											}
, 											{
												"box" : 												{
													"fontname" : "Arial",
													"fontsize" : 12.0,
													"id" : "obj-11",
													"maxclass" : "newobj",
													"numinlets" : 3,
													"numoutlets" : 1,
													"outlettype" : [ "list" ],
													"patching_rect" : [ 50.0, 128.562256, 46.0, 20.0 ],
													"text" : "atoi"
												}

											}
, 											{
												"box" : 												{
													"fontname" : "Arial",
													"fontsize" : 12.0,
													"id" : "obj-7",
													"maxclass" : "newobj",
													"numinlets" : 1,
													"numoutlets" : 3,
													"outlettype" : [ "", "", "" ],
													"patching_rect" : [ 50.0, 100.0, 277.0, 20.0 ],
													"text" : "jcom.route @searchstring /Table: @partialmatch 1"
												}

											}
, 											{
												"box" : 												{
													"comment" : "",
													"id" : "obj-25",
													"maxclass" : "inlet",
													"numinlets" : 0,
													"numoutlets" : 1,
													"outlettype" : [ "" ],
													"patching_rect" : [ 50.0, 40.0, 25.0, 25.0 ]
												}

											}
, 											{
												"box" : 												{
													"comment" : "",
													"id" : "obj-27",
													"maxclass" : "outlet",
													"numinlets" : 1,
													"numoutlets" : 0,
													"patching_rect" : [ 88.0, 260.520752, 25.0, 25.0 ]
												}

											}
 ],
										"lines" : [ 											{
												"patchline" : 												{
													"destination" : [ "obj-15", 0 ],
													"disabled" : 0,
													"hidden" : 0,
													"source" : [ "obj-11", 0 ]
												}

											}
, 											{
												"patchline" : 												{
													"destination" : [ "obj-16", 0 ],
													"disabled" : 0,
													"hidden" : 0,
													"source" : [ "obj-15", 1 ]
												}

											}
, 											{
												"patchline" : 												{
													"destination" : [ "obj-27", 0 ],
													"disabled" : 0,
													"hidden" : 0,
													"source" : [ "obj-16", 0 ]
												}

											}
, 											{
												"patchline" : 												{
													"destination" : [ "obj-7", 0 ],
													"disabled" : 0,
													"hidden" : 0,
													"source" : [ "obj-25", 0 ]
												}

											}
, 											{
												"patchline" : 												{
													"destination" : [ "obj-11", 0 ],
													"disabled" : 0,
													"hidden" : 0,
													"source" : [ "obj-7", 0 ]
												}

											}
 ],
										"dependency_cache" : [ 											{
												"name" : "jcom.route.mxo",
												"type" : "iLaX"
											}
 ]
									}
,
									"patching_rect" : [ 50.0, 203.5, 88.0, 20.0 ],
									"saved_object_attributes" : 									{
										"globalpatchername" : "",
										"fontface" : 0,
										"fontsize" : 12.0,
										"default_fontface" : 0,
										"digest" : "",
										"default_fontname" : "Arial",
										"tags" : "",
										"default_fontsize" : 12.0,
										"fontname" : "Arial",
										"description" : ""
									}
,
									"text" : "p filterTABLES"
								}

							}
, 							{
								"box" : 								{
									"comment" : "",
									"id" : "obj-22",
									"maxclass" : "outlet",
									"numinlets" : 1,
									"numoutlets" : 0,
									"patching_rect" : [ 50.0, 319.979248, 25.0, 25.0 ]
								}

							}
, 							{
								"box" : 								{
									"fontname" : "Verdana",
									"fontsize" : 10.0,
									"id" : "obj-13",
									"maxclass" : "newobj",
									"numinlets" : 1,
									"numoutlets" : 1,
									"outlettype" : [ "" ],
									"patching_rect" : [ 50.0, 256.0, 90.0, 19.0 ],
									"text" : "prepend append"
								}

							}
, 							{
								"box" : 								{
									"fontname" : "Verdana",
									"fontsize" : 10.0,
									"id" : "obj-17",
									"maxclass" : "newobj",
									"numinlets" : 1,
									"numoutlets" : 3,
									"outlettype" : [ "", "int", "clear" ],
									"patching_rect" : [ 50.0, 127.0, 124.0, 19.0 ],
									"text" : "jcom.modulesDumper"
								}

							}
, 							{
								"box" : 								{
									"comment" : "",
									"id" : "obj-32",
									"maxclass" : "inlet",
									"numinlets" : 0,
									"numoutlets" : 1,
									"outlettype" : [ "bang" ],
									"patching_rect" : [ 50.0, 86.0, 25.0, 25.0 ]
								}

							}
 ],
						"lines" : [ 							{
								"patchline" : 								{
									"destination" : [ "obj-13", 0 ],
									"disabled" : 0,
									"hidden" : 0,
									"midpoints" : [ 141.5, 250.0, 59.5, 250.0 ],
									"source" : [ "obj-1", 1 ]
								}

							}
, 							{
								"patchline" : 								{
									"destination" : [ "obj-22", 0 ],
									"disabled" : 0,
									"hidden" : 0,
									"source" : [ "obj-13", 0 ]
								}

							}
, 							{
								"patchline" : 								{
									"destination" : [ "obj-22", 0 ],
									"disabled" : 0,
									"hidden" : 0,
									"midpoints" : [ 164.5, 312.489624, 59.5, 312.489624 ],
									"source" : [ "obj-17", 2 ]
								}

							}
, 							{
								"patchline" : 								{
									"destination" : [ "obj-3", 0 ],
									"disabled" : 0,
									"hidden" : 0,
									"source" : [ "obj-17", 2 ]
								}

							}
, 							{
								"patchline" : 								{
									"destination" : [ "obj-1", 0 ],
									"disabled" : 0,
									"hidden" : 0,
									"source" : [ "obj-29", 0 ]
								}

							}
, 							{
								"patchline" : 								{
									"destination" : [ "obj-29", 0 ],
									"disabled" : 0,
									"hidden" : 0,
									"source" : [ "obj-3", 0 ]
								}

							}
, 							{
								"patchline" : 								{
									"destination" : [ "obj-17", 0 ],
									"disabled" : 0,
									"hidden" : 0,
									"source" : [ "obj-32", 0 ]
								}

							}
 ],
						"dependency_cache" : [ 							{
								"name" : "jcom.modulesDumper.maxpat",
								"bootpath" : "/Applications/Max6/Cycling '74/Jamoma/library/components/modulesDumper",
								"type" : "JSON",
								"implicit" : 1
							}
, 							{
								"name" : "jcom.getModuleNames.maxpat",
								"bootpath" : "/Applications/Max6/Cycling '74/Jamoma/library/components/getModuleNames",
								"type" : "JSON",
								"implicit" : 1
							}
, 							{
								"name" : "jcom.loader.mxo",
								"type" : "iLaX"
							}
, 							{
								"name" : "jcom.loader.mxo",
								"type" : "iLaX"
							}
, 							{
								"name" : "jcom.oscinstance.mxo",
								"type" : "iLaX"
							}
, 							{
								"name" : "jcom.init.mxo",
								"type" : "iLaX"
							}
, 							{
								"name" : "jcom.route.mxo",
								"type" : "iLaX"
							}
, 							{
								"name" : "jcom.oscroute.mxo",
								"type" : "iLaX"
							}
 ]
					}
,
					"patching_rect" : [ 312.5, 210.979248, 110.0, 20.0 ],
					"saved_object_attributes" : 					{
						"globalpatchername" : "",
						"fontface" : 0,
						"fontsize" : 12.0,
						"default_fontface" : 0,
						"digest" : "",
						"default_fontname" : "Arial",
						"tags" : "",
						"default_fontsize" : 12.0,
						"fontname" : "Arial",
						"description" : ""
					}
,
					"text" : "p getTablesNames"
				}

			}
, 			{
				"box" : 				{
					"fontname" : "Arial",
					"fontsize" : 12.0,
					"frgb" : [ 0.0, 0.0, 0.0, 1.0 ],
					"id" : "obj-60",
					"maxclass" : "comment",
					"numinlets" : 1,
					"numoutlets" : 0,
					"patching_rect" : [ 531.0, 273.5, 150.0, 20.0 ],
					"text" : "X"
				}

			}
, 			{
				"box" : 				{
					"comment" : "",
					"id" : "obj-30",
					"maxclass" : "outlet",
					"numinlets" : 1,
					"numoutlets" : 0,
					"patching_rect" : [ 603.0, 375.5, 25.0, 25.0 ]
				}

			}
, 			{
				"box" : 				{
					"comment" : "clear",
					"id" : "obj-26",
					"maxclass" : "outlet",
					"numinlets" : 1,
					"numoutlets" : 0,
					"patching_rect" : [ 293.949951, 314.666656, 25.0, 25.0 ]
				}

			}
, 			{
				"box" : 				{
					"comment" : "module names",
					"id" : "obj-20",
					"maxclass" : "outlet",
					"numinlets" : 1,
					"numoutlets" : 0,
					"patching_rect" : [ 325.521362, 314.666656, 25.0, 25.0 ]
				}

			}
, 			{
				"box" : 				{
					"fontname" : "Arial",
					"fontsize" : 12.0,
					"id" : "obj-10",
					"maxclass" : "newobj",
					"numinlets" : 1,
					"numoutlets" : 2,
					"outlettype" : [ "bang", "clear" ],
					"patching_rect" : [ 312.5, 182.5, 110.0, 20.0 ],
					"text" : "t b clear"
				}

			}
, 			{
				"box" : 				{
					"comment" : "",
					"id" : "obj-8",
					"maxclass" : "inlet",
					"numinlets" : 0,
					"numoutlets" : 1,
					"outlettype" : [ "" ],
					"patching_rect" : [ 113.0, 48.0, 25.0, 25.0 ]
				}

			}
 ],
		"lines" : [ 			{
				"patchline" : 				{
					"destination" : [ "obj-26", 0 ],
					"disabled" : 0,
					"hidden" : 0,
					"source" : [ "obj-10", 1 ]
				}

			}
, 			{
				"patchline" : 				{
					"destination" : [ "obj-35", 0 ],
					"disabled" : 0,
					"hidden" : 0,
					"source" : [ "obj-10", 0 ]
				}

			}
, 			{
				"patchline" : 				{
					"destination" : [ "obj-1", 0 ],
					"disabled" : 0,
					"hidden" : 0,
					"midpoints" : [ 521.5, 296.333313, 665.5, 296.333313 ],
					"source" : [ "obj-24", 0 ]
				}

			}
, 			{
				"patchline" : 				{
					"destination" : [ "obj-30", 0 ],
					"disabled" : 0,
					"hidden" : 0,
					"source" : [ "obj-24", 1 ]
				}

			}
, 			{
				"patchline" : 				{
					"destination" : [ "obj-20", 0 ],
					"disabled" : 0,
					"hidden" : 0,
					"midpoints" : [ 322.0, 272.322937, 335.021362, 272.322937 ],
					"source" : [ "obj-35", 0 ]
				}

			}
, 			{
				"patchline" : 				{
					"destination" : [ "obj-10", 0 ],
					"disabled" : 0,
					"hidden" : 0,
					"source" : [ "obj-4", 1 ]
				}

			}
, 			{
				"patchline" : 				{
					"destination" : [ "obj-24", 0 ],
					"disabled" : 0,
					"hidden" : 0,
					"source" : [ "obj-4", 2 ]
				}

			}
, 			{
				"patchline" : 				{
					"destination" : [ "obj-24", 1 ],
					"disabled" : 0,
					"hidden" : 0,
					"midpoints" : [ 122.5, 143.75, 612.5, 143.75 ],
					"source" : [ "obj-4", 0 ]
				}

			}
, 			{
				"patchline" : 				{
					"destination" : [ "obj-6", 0 ],
					"disabled" : 0,
					"hidden" : 0,
					"source" : [ "obj-4", 0 ]
				}

			}
, 			{
				"patchline" : 				{
					"destination" : [ "obj-4", 0 ],
					"disabled" : 0,
					"hidden" : 0,
					"source" : [ "obj-8", 0 ]
				}

			}
 ],
		"dependency_cache" : [ 			{
				"name" : "jcom.modulesDumper.maxpat",
				"bootpath" : "/Applications/Max6/Cycling '74/Jamoma/library/components/modulesDumper",
				"patcherrelativepath" : "../../../../../../../Applications/Max6/Cycling '74/Jamoma/library/components/modulesDumper",
				"type" : "JSON",
				"implicit" : 1
			}
, 			{
				"name" : "jcom.getModuleNames.maxpat",
				"bootpath" : "/Applications/Max6/Cycling '74/Jamoma/library/components/getModuleNames",
				"patcherrelativepath" : "../../../../../../../Applications/Max6/Cycling '74/Jamoma/library/components/getModuleNames",
				"type" : "JSON",
				"implicit" : 1
			}
, 			{
				"name" : "jcom.loader.mxo",
				"type" : "iLaX"
			}
, 			{
				"name" : "jcom.loader.mxo",
				"type" : "iLaX"
			}
, 			{
				"name" : "jcom.oscinstance.mxo",
				"type" : "iLaX"
			}
, 			{
				"name" : "jcom.init.mxo",
				"type" : "iLaX"
			}
, 			{
				"name" : "jcom.route.mxo",
				"type" : "iLaX"
			}
, 			{
				"name" : "jcom.oscroute.mxo",
				"type" : "iLaX"
			}
, 			{
				"name" : "ftm.mess.mxo",
				"type" : "iLaX"
			}
, 			{
				"name" : "ftm.list.mxo",
				"type" : "iLaX"
			}
 ]
	}

}
